<svg width="36" height="36" viewBox="0 0 36 36" fill="none" xmlns="http://www.w3.org/2000/svg">
<path d="M35.09 17.5508C35.09 26.4147 28.5215 33.7427 19.9884 34.9319C19.1905 35.0425 18.3742 35.1003 17.5456 35.1003C16.5892 35.1003 15.6499 35.0241 14.7353 34.8765C6.38045 33.5312 0 26.2856 0 17.5508C0 7.85801 7.8557 0 17.5444 0C27.2331 0 35.09 7.85801 35.09 17.5508Z" fill="#1877F2"/>
<path d="M19.9882 14.0915V17.9148H24.7164L23.9677 23.0649H19.9882V34.9306C19.1903 35.0413 18.374 35.0991 17.5454 35.0991C16.589 35.0991 15.6498 35.0228 14.7351 34.8753V23.0649H10.3745V17.9148H14.7351V13.2368C14.7351 10.3347 17.0869 7.98096 19.9894 7.98096V7.98342C19.998 7.98342 20.0054 7.98096 20.014 7.98096H24.7176V12.4351H21.6442C20.7308 12.4351 19.9894 13.1766 19.9894 14.0903L19.9882 14.0915Z" fill="white"/>
</svg>
