<svg width="36" height="36" viewBox="0 0 36 36" fill="none" xmlns="http://www.w3.org/2000/svg">
<path d="M18.2502 35.09H18.173C8.5201 35.09 0.666626 27.2365 0.666626 17.5836V17.5064C0.666626 7.85347 8.5201 0 18.173 0H18.2502C27.9032 0 35.7566 7.85347 35.7566 17.5064V17.5836C35.7566 27.2365 27.9032 35.09 18.2502 35.09ZM18.173 1.18776C9.17455 1.18776 1.85439 8.50793 1.85439 17.5064V17.5836C1.85439 26.5821 9.17455 33.9022 18.173 33.9022H18.2502C27.2487 33.9022 34.5689 26.5821 34.5689 17.5836V17.5064C34.5689 8.50793 27.2487 1.18776 18.2502 1.18776H18.173Z" fill="#1877F2"/>
<path d="M20.5723 13.6105V17.3032H25.1405L24.4171 22.2776H20.5723V33.7383C19.8015 33.8452 19.0128 33.901 18.2123 33.901C17.2882 33.901 16.3807 33.8273 15.497 33.6848V22.2776H11.2841V17.3032H15.497V12.785C15.497 9.98187 17.7692 7.7085 20.5735 7.7085V7.71086C20.5818 7.71086 20.589 7.7085 20.5973 7.7085H25.1417V12.0106H22.1723C21.2898 12.0106 20.5735 12.7268 20.5735 13.6093L20.5723 13.6105Z" fill="#1877F2"/>
</svg>
