<svg width="36" height="36" viewBox="0 0 36 36" fill="none" xmlns="http://www.w3.org/2000/svg">
<path d="M17.585 0H17.505C7.83728 0 0 7.83958 0 17.5102V17.5901C0 27.2607 7.83728 35.1003 17.505 35.1003H17.585C27.2527 35.1003 35.09 27.2607 35.09 17.5901V17.5102C35.09 7.83958 27.2527 0 17.585 0Z" fill="url(#paint0_linear_198_421)"/>
<path d="M22.9746 7.14111H12.1167C9.11706 7.14111 6.67676 9.58214 6.67676 12.5827V22.519C6.67676 25.5195 9.11706 27.9605 12.1167 27.9605H22.9746C25.9742 27.9605 28.4145 25.5195 28.4145 22.519V12.5827C28.4145 9.58214 25.9742 7.14111 22.9746 7.14111ZM8.59581 12.5827C8.59581 10.6409 10.1756 9.06073 12.1167 9.06073H22.9746C24.9157 9.06073 26.4955 10.6409 26.4955 12.5827V22.519C26.4955 24.4607 24.9157 26.0409 22.9746 26.0409H12.1167C10.1756 26.0409 8.59581 24.4607 8.59581 22.519V12.5827Z" fill="white"/>
<path d="M17.5455 22.611C20.3349 22.611 22.6056 20.3409 22.6056 17.5494C22.6056 14.7579 20.3361 12.4878 17.5455 12.4878C14.7548 12.4878 12.4854 14.7579 12.4854 17.5494C12.4854 20.3409 14.7548 22.611 17.5455 22.611ZM17.5455 14.4086C19.2776 14.4086 20.6865 15.8179 20.6865 17.5506C20.6865 19.2833 19.2776 20.6926 17.5455 20.6926C15.8133 20.6926 14.4044 19.2833 14.4044 17.5506C14.4044 15.8179 15.8133 14.4086 17.5455 14.4086Z" fill="white"/>
<path d="M23.0743 13.3057C23.8255 13.3057 24.4377 12.6945 24.4377 11.9419C24.4377 11.1893 23.8267 10.5781 23.0743 10.5781C22.3219 10.5781 21.7109 11.1893 21.7109 11.9419C21.7109 12.6945 22.3219 13.3057 23.0743 13.3057Z" fill="white"/>
<defs>
<linearGradient id="paint0_linear_198_421" x1="5.12649" y1="29.9723" x2="29.9708" y2="5.13654" gradientUnits="userSpaceOnUse">
<stop stop-color="#FAAD4F"/>
<stop offset="0.35" stop-color="#DD2A7B"/>
<stop offset="0.62" stop-color="#9537B0"/>
<stop offset="1" stop-color="#515BD4"/>
</linearGradient>
</defs>
</svg>
