<svg width="36" height="36" viewBox="0 0 36 36" fill="none" xmlns="http://www.w3.org/2000/svg">
<path d="M18.3402 35.09H18.263C8.6101 35.09 0.756622 27.2365 0.756622 17.5836V17.5064C0.756622 7.85347 8.6101 0 18.263 0H18.3402C27.9931 0 35.8466 7.85347 35.8466 17.5064V17.5836C35.8466 27.2365 27.9931 35.09 18.3402 35.09ZM18.263 1.18776C9.26455 1.18776 1.94438 8.50793 1.94438 17.5064V17.5836C1.94438 26.5821 9.26455 33.9022 18.263 33.9022H18.3402C27.3387 33.9022 34.6589 26.5821 34.6589 17.5836V17.5064C34.6589 8.50793 27.3387 1.18776 18.3402 1.18776H18.263Z" fill="url(#paint0_linear_341_518)"/>
<path d="M23.5472 7.49121H13.0569C10.1588 7.49121 7.80106 9.84892 7.80106 12.7471V22.3442C7.80106 25.2423 10.1588 27.6 13.0569 27.6H23.5472C26.4453 27.6 28.803 25.2423 28.803 22.3442V12.7471C28.803 9.84892 26.4453 7.49121 23.5472 7.49121ZM9.65515 12.7471C9.65515 10.8716 11.1814 9.3453 13.0569 9.3453H23.5472C25.4227 9.3453 26.9489 10.8716 26.9489 12.7471V22.3442C26.9489 24.2196 25.4227 25.7459 23.5472 25.7459H13.0569C11.1814 25.7459 9.65515 24.2196 9.65515 22.3442V12.7471Z" fill="url(#paint1_linear_341_518)"/>
<path d="M18.3026 22.4334C20.9979 22.4334 23.1919 20.2408 23.1919 17.5446C23.1919 14.8484 20.9991 12.6558 18.3026 12.6558C15.6062 12.6558 13.4134 14.8484 13.4134 17.5446C13.4134 20.2408 15.6062 22.4334 18.3026 22.4334ZM18.3026 14.511C19.9763 14.511 21.3376 15.8722 21.3376 17.5458C21.3376 19.2193 19.9763 20.5805 18.3026 20.5805C16.6289 20.5805 15.2676 19.2193 15.2676 17.5458C15.2676 15.8722 16.6289 14.511 18.3026 14.511Z" fill="url(#paint2_linear_341_518)"/>
<path d="M23.6438 13.4455C24.3696 13.4455 24.9611 12.8552 24.9611 12.1283C24.9611 11.4013 24.3708 10.811 23.6438 10.811C22.9168 10.811 22.3264 11.4013 22.3264 12.1283C22.3264 12.8552 22.9168 13.4455 23.6438 13.4455Z" fill="url(#paint3_linear_341_518)"/>
<defs>
<linearGradient id="paint0_linear_341_518" x1="5.89012" y1="29.9565" x2="30.7131" y2="5.1335" gradientUnits="userSpaceOnUse">
<stop stop-color="#FAAD4F"/>
<stop offset="0.35" stop-color="#DD2A7B"/>
<stop offset="0.62" stop-color="#9537B0"/>
<stop offset="1" stop-color="#515BD4"/>
</linearGradient>
<linearGradient id="paint1_linear_341_518" x1="9.56488" y1="26.2816" x2="27.038" y2="8.80964" gradientUnits="userSpaceOnUse">
<stop stop-color="#FAAD4F"/>
<stop offset="0.35" stop-color="#DD2A7B"/>
<stop offset="0.62" stop-color="#9537B0"/>
<stop offset="1" stop-color="#515BD4"/>
</linearGradient>
<linearGradient id="paint2_linear_341_518" x1="14.8471" y1="21.001" x2="21.7563" y2="14.0899" gradientUnits="userSpaceOnUse">
<stop stop-color="#FAAD4F"/>
<stop offset="0.35" stop-color="#DD2A7B"/>
<stop offset="0.62" stop-color="#9537B0"/>
<stop offset="1" stop-color="#515BD4"/>
</linearGradient>
<linearGradient id="paint3_linear_341_518" x1="22.7125" y1="13.0595" x2="24.5749" y2="11.1969" gradientUnits="userSpaceOnUse">
<stop stop-color="#FAAD4F"/>
<stop offset="0.35" stop-color="#DD2A7B"/>
<stop offset="0.62" stop-color="#9537B0"/>
<stop offset="1" stop-color="#515BD4"/>
</linearGradient>
</defs>
</svg>
