<svg width="603" height="435" viewBox="0 0 603 435" fill="none" xmlns="http://www.w3.org/2000/svg">
<g clip-path="url(#clip0_150_303)">
<path d="M601.804 431.664H1.54353C1.3128 431.664 1.09153 431.572 0.928383 431.409C0.765238 431.246 0.673584 431.025 0.673584 430.794C0.673584 430.563 0.765238 430.342 0.928383 430.178C1.09153 430.015 1.3128 429.923 1.54353 429.923H601.804C602.034 429.923 602.256 430.015 602.419 430.178C602.582 430.342 602.674 430.563 602.674 430.794C602.674 431.025 602.582 431.246 602.419 431.409C602.256 431.572 602.034 431.664 601.804 431.664Z" fill="#CCCCCC"/>
<path d="M542.39 279.897H189.194C187.694 279.897 186.256 280.493 185.196 281.554C184.135 282.615 183.539 284.053 183.539 285.553C183.539 287.054 184.135 288.492 185.196 289.553C186.256 290.614 187.694 291.21 189.194 291.21H199.198V426.528C199.198 428.028 199.794 429.467 200.854 430.528C201.915 431.589 203.353 432.185 204.853 432.185C206.353 432.185 207.791 431.589 208.851 430.528C209.912 429.467 210.508 428.028 210.508 426.528L210.593 291.21H520.207V426.528C520.207 428.028 520.803 429.467 521.863 430.528C522.924 431.589 524.362 432.185 525.862 432.185C527.361 432.185 528.8 431.589 529.86 430.528C530.92 429.467 531.516 428.028 531.516 426.528V294.192L533.161 291.21H542.39C543.89 291.21 545.328 290.614 546.389 289.553C547.449 288.492 548.045 287.054 548.045 285.553C548.045 284.053 547.449 282.615 546.389 281.554C545.328 280.493 543.89 279.897 542.39 279.897Z" fill="#CCCCCC"/>
<path d="M385.009 282.857H278.022C275.95 282.855 273.964 282.031 272.499 280.565C271.035 279.1 270.211 277.113 270.208 275.041V216.12C270.211 214.047 271.035 212.061 272.499 210.595C273.964 209.13 275.95 208.306 278.022 208.304H385.009C387.081 208.306 389.067 209.13 390.531 210.595C391.996 212.061 392.82 214.047 392.823 216.12V275.041C392.82 277.113 391.996 279.1 390.531 280.565C389.067 282.031 387.081 282.855 385.009 282.857Z" fill="#3F3D56"/>
<path d="M385.008 214.319H278.022C277.545 214.32 277.088 214.51 276.75 214.848C276.413 215.185 276.223 215.643 276.222 216.12V275.043C276.223 275.52 276.413 275.978 276.75 276.315C277.088 276.653 277.545 276.843 278.022 276.844H385.008C385.485 276.843 385.943 276.653 386.28 276.315C386.618 275.978 386.808 275.52 386.809 275.043V216.12C386.808 215.643 386.618 215.185 386.28 214.848C385.943 214.51 385.485 214.32 385.008 214.319Z" fill="white"/>
<path d="M340.64 256.036C340.64 256.036 327.833 253.083 320.788 258.496C313.744 263.908 329.754 276.209 329.754 276.209L340.64 256.036Z" fill="#2F2E41"/>
<path d="M332.142 250.458C338.815 250.458 344.223 245.047 344.223 238.373C344.223 231.699 338.815 226.288 332.142 226.288C325.47 226.288 320.062 231.699 320.062 238.373C320.062 245.047 325.47 250.458 332.142 250.458Z" fill="#A0616A"/>
<path d="M322.801 221.409C323.606 220.041 324.774 218.923 326.175 218.177C327.576 217.431 329.156 217.087 330.74 217.183C332.397 217.391 334.014 217.844 335.538 218.527L343.436 221.608C345.479 222.406 347.718 223.383 348.604 225.39C349.427 227.252 348.813 229.404 348.192 231.343L345.237 240.561C344.91 238.475 344.348 236.432 343.563 234.472C342.764 232.498 341.322 230.853 339.47 229.804C337.419 228.751 335.001 228.773 332.698 228.884C329.436 229.041 325.89 229.456 323.573 231.757C322.343 233.064 321.509 234.694 321.168 236.456C320.832 238.209 320.663 239.99 320.663 241.774C319.326 239.475 318.199 237.058 317.297 234.556C316.555 232.692 316.132 230.716 316.047 228.712C315.969 226.691 316.639 224.712 317.93 223.154C318.585 222.393 319.439 221.83 320.397 221.528C321.354 221.227 322.377 221.199 323.35 221.448L322.801 221.409Z" fill="#2F2E41"/>
<path d="M360.989 266.515C360.875 266.106 360.644 265.741 360.324 265.464C360.003 265.187 359.608 265.01 359.188 264.957C359.16 264.938 359.131 264.92 359.101 264.905L341.066 254.794C340.551 254.506 339.945 254.427 339.373 254.574C338.801 254.721 338.308 255.083 337.997 255.585L333.064 263.573L325.635 256.142L325.517 256.023C325.135 255.642 324.632 255.407 324.095 255.36C323.558 255.313 323.021 255.457 322.579 255.767L307.757 266.149C307.731 266.149 307.705 266.158 307.679 266.158C306.97 266.276 306.322 266.633 305.843 267.169C305.363 267.706 305.081 268.389 305.043 269.108L304.66 276.844H363.851L360.989 266.515Z" fill="#6C63FF"/>
<path d="M394.025 275.642H382.605C382.605 275.323 382.478 275.018 382.253 274.792C382.027 274.567 381.721 274.44 381.403 274.44H377.796C377.477 274.44 377.172 274.567 376.946 274.792C376.721 275.018 376.594 275.323 376.594 275.642H372.988C372.988 275.323 372.861 275.018 372.636 274.792C372.41 274.567 372.105 274.44 371.786 274.44H368.179C367.861 274.44 367.555 274.567 367.329 274.792C367.104 275.018 366.977 275.323 366.977 275.642H363.371C363.371 275.323 363.244 275.018 363.019 274.792C362.793 274.567 362.488 274.44 362.169 274.44H358.563C358.244 274.44 357.938 274.567 357.713 274.792C357.487 275.018 357.361 275.323 357.361 275.642H353.754C353.754 275.323 353.628 275.018 353.402 274.792C353.177 274.567 352.871 274.44 352.552 274.44H348.946C348.627 274.44 348.321 274.567 348.096 274.792C347.87 275.018 347.744 275.323 347.744 275.642H344.137C344.137 275.323 344.011 275.018 343.785 274.792C343.56 274.567 343.254 274.44 342.935 274.44H339.329C339.01 274.44 338.704 274.567 338.479 274.792C338.254 275.018 338.127 275.323 338.127 275.642H334.521C334.521 275.323 334.394 275.018 334.168 274.792C333.943 274.567 333.637 274.44 333.318 274.44H329.712C329.393 274.44 329.088 274.567 328.862 274.792C328.637 275.018 328.51 275.323 328.51 275.642H324.904C324.904 275.323 324.777 275.018 324.552 274.792C324.326 274.567 324.02 274.44 323.702 274.44H320.095C319.777 274.44 319.471 274.567 319.245 274.792C319.02 275.018 318.893 275.323 318.893 275.642H315.287C315.287 275.323 315.16 275.018 314.935 274.792C314.709 274.567 314.404 274.44 314.085 274.44H310.479C310.16 274.44 309.854 274.567 309.628 274.792C309.403 275.018 309.276 275.323 309.276 275.642H305.67C305.67 275.323 305.543 275.018 305.318 274.792C305.093 274.567 304.787 274.44 304.468 274.44H300.862C300.543 274.44 300.237 274.567 300.012 274.792C299.786 275.018 299.66 275.323 299.66 275.642H296.053C296.053 275.323 295.927 275.018 295.701 274.792C295.476 274.567 295.17 274.44 294.851 274.44H291.245C290.926 274.44 290.62 274.567 290.395 274.792C290.169 275.018 290.043 275.323 290.043 275.642H286.436C286.436 275.323 286.31 275.018 286.084 274.792C285.859 274.567 285.553 274.44 285.234 274.44H281.628C281.309 274.44 281.003 274.567 280.778 274.792C280.553 275.018 280.426 275.323 280.426 275.642H269.006C268.051 275.644 267.135 276.025 266.46 276.701C265.784 277.377 265.405 278.294 265.405 279.25C265.405 280.206 265.784 281.122 266.46 281.799C267.135 282.475 268.051 282.856 269.006 282.857H394.025C394.981 282.857 395.898 282.477 396.575 281.801C397.251 281.124 397.631 280.207 397.631 279.25C397.631 278.293 397.251 277.375 396.575 276.699C395.898 276.022 394.981 275.642 394.025 275.642Z" fill="#3F3D56"/>
<path d="M250.416 254.693V278.646H190.423C188.815 278.702 187.213 278.434 185.712 277.857C184.21 277.28 182.84 276.407 181.683 275.29C180.527 274.172 179.606 272.833 178.978 271.352C178.35 269.871 178.026 268.278 178.026 266.67C178.026 265.061 178.35 263.468 178.978 261.987C179.606 260.506 180.527 259.167 181.683 258.05C182.84 256.932 184.21 256.059 185.712 255.482C187.213 254.905 188.815 254.637 190.423 254.693H250.416Z" fill="#F2F2F2"/>
<path d="M251.89 278.462C251.889 278.706 251.792 278.941 251.62 279.113C251.447 279.286 251.213 279.383 250.968 279.383H189.354C186.008 279.383 182.798 278.053 180.432 275.686C178.066 273.319 176.737 270.109 176.737 266.762C176.737 263.414 178.066 260.204 180.432 257.837C182.798 255.47 186.008 254.14 189.354 254.14H250.968C251.213 254.14 251.447 254.237 251.62 254.41C251.792 254.583 251.89 254.817 251.89 255.061C251.89 255.306 251.792 255.54 251.62 255.713C251.447 255.886 251.213 255.983 250.968 255.983H189.354C186.498 255.985 183.76 257.122 181.741 259.143C179.722 261.164 178.588 263.905 178.588 266.762C178.588 269.619 179.722 272.359 181.741 274.38C183.76 276.401 186.498 277.538 189.354 277.541H250.968C251.213 277.541 251.447 277.638 251.62 277.811C251.792 277.983 251.889 278.218 251.89 278.462Z" fill="#6C63FF"/>
<path d="M250.416 260.221H185.946C185.922 260.221 185.898 260.216 185.875 260.207C185.853 260.198 185.832 260.184 185.815 260.167C185.798 260.15 185.784 260.13 185.775 260.107C185.766 260.085 185.761 260.061 185.761 260.036C185.761 260.012 185.766 259.988 185.775 259.966C185.784 259.943 185.798 259.923 185.815 259.906C185.832 259.888 185.853 259.875 185.875 259.866C185.898 259.857 185.922 259.852 185.946 259.852H250.416C250.464 259.852 250.511 259.872 250.545 259.907C250.579 259.941 250.599 259.988 250.599 260.036C250.599 260.085 250.579 260.132 250.545 260.166C250.511 260.201 250.464 260.22 250.416 260.221Z" fill="#CCCCCC"/>
<path d="M250.416 264.643H185.946C185.922 264.643 185.898 264.638 185.875 264.629C185.853 264.62 185.832 264.606 185.815 264.589C185.798 264.572 185.784 264.552 185.775 264.529C185.766 264.507 185.761 264.483 185.761 264.459C185.761 264.434 185.766 264.41 185.775 264.388C185.784 264.365 185.798 264.345 185.815 264.328C185.832 264.311 185.853 264.297 185.875 264.288C185.898 264.279 185.922 264.274 185.946 264.274H250.416C250.464 264.275 250.511 264.294 250.545 264.329C250.579 264.363 250.599 264.41 250.599 264.459C250.599 264.507 250.579 264.554 250.545 264.588C250.511 264.623 250.464 264.642 250.416 264.643Z" fill="#CCCCCC"/>
<path d="M250.416 269.065H185.946C185.922 269.065 185.898 269.06 185.875 269.051C185.853 269.042 185.832 269.029 185.815 269.011C185.798 268.994 185.784 268.974 185.775 268.951C185.766 268.929 185.761 268.905 185.761 268.881C185.761 268.856 185.766 268.832 185.775 268.81C185.784 268.787 185.798 268.767 185.815 268.75C185.832 268.733 185.853 268.719 185.875 268.71C185.898 268.701 185.922 268.696 185.946 268.696H250.416C250.464 268.697 250.511 268.716 250.545 268.751C250.579 268.785 250.599 268.832 250.599 268.881C250.599 268.929 250.579 268.976 250.545 269.011C250.511 269.045 250.464 269.065 250.416 269.065Z" fill="#CCCCCC"/>
<path d="M250.416 273.487H185.946C185.922 273.487 185.898 273.483 185.875 273.473C185.853 273.464 185.832 273.451 185.815 273.434C185.798 273.416 185.784 273.396 185.775 273.374C185.766 273.351 185.761 273.327 185.761 273.303C185.761 273.278 185.766 273.254 185.775 273.232C185.784 273.21 185.798 273.189 185.815 273.172C185.832 273.155 185.853 273.141 185.875 273.132C185.898 273.123 185.922 273.118 185.946 273.119H250.416C250.464 273.119 250.511 273.138 250.545 273.173C250.579 273.207 250.599 273.254 250.599 273.303C250.599 273.351 250.579 273.398 250.545 273.433C250.511 273.467 250.464 273.487 250.416 273.487Z" fill="#CCCCCC"/>
<path d="M239.106 229.457V253.41H179.113C177.506 253.466 175.904 253.198 174.402 252.621C172.901 252.044 171.531 251.171 170.374 250.053C169.217 248.936 168.297 247.596 167.669 246.115C167.04 244.635 166.717 243.042 166.717 241.433C166.717 239.824 167.04 238.232 167.669 236.751C168.297 235.27 169.217 233.931 170.374 232.813C171.531 231.696 172.901 230.822 174.402 230.246C175.904 229.669 177.506 229.401 179.113 229.457H239.106Z" fill="#F2F2F2"/>
<path d="M240.58 253.226C240.58 253.47 240.483 253.704 240.31 253.877C240.138 254.05 239.903 254.147 239.659 254.147H178.045C176.388 254.147 174.747 253.821 173.216 253.186C171.685 252.552 170.295 251.622 169.123 250.45C167.951 249.278 167.022 247.887 166.388 246.356C165.754 244.824 165.427 243.183 165.427 241.525C165.427 239.868 165.754 238.227 166.388 236.695C167.022 235.164 167.951 233.773 169.123 232.601C170.295 231.429 171.685 230.499 173.216 229.865C174.747 229.23 176.388 228.904 178.045 228.904H239.659C239.903 228.904 240.138 229.001 240.31 229.174C240.483 229.347 240.58 229.581 240.58 229.825C240.58 230.07 240.483 230.304 240.31 230.477C240.138 230.649 239.903 230.746 239.659 230.746H178.045C175.189 230.749 172.45 231.886 170.432 233.907C168.413 235.928 167.279 238.668 167.279 241.525C167.279 244.383 168.413 247.123 170.432 249.144C172.45 251.165 175.189 252.302 178.045 252.304H239.659C239.903 252.305 240.138 252.402 240.31 252.574C240.483 252.747 240.58 252.981 240.58 253.226Z" fill="#3F3D56"/>
<path d="M239.107 234.984H174.637C174.613 234.985 174.589 234.98 174.566 234.971C174.544 234.961 174.523 234.948 174.506 234.931C174.489 234.914 174.475 234.893 174.466 234.871C174.456 234.848 174.452 234.824 174.452 234.8C174.452 234.776 174.456 234.752 174.466 234.729C174.475 234.707 174.489 234.686 174.506 234.669C174.523 234.652 174.544 234.639 174.566 234.629C174.589 234.62 174.613 234.616 174.637 234.616H239.107C239.155 234.616 239.202 234.636 239.236 234.67C239.27 234.705 239.29 234.751 239.29 234.8C239.29 234.849 239.27 234.895 239.236 234.93C239.202 234.964 239.155 234.984 239.107 234.984Z" fill="#CCCCCC"/>
<path d="M239.107 239.407H174.637C174.613 239.407 174.589 239.402 174.566 239.393C174.544 239.384 174.523 239.37 174.506 239.353C174.489 239.336 174.475 239.316 174.466 239.293C174.456 239.271 174.452 239.247 174.452 239.222C174.452 239.198 174.456 239.174 174.466 239.151C174.475 239.129 174.489 239.109 174.506 239.092C174.523 239.074 174.544 239.061 174.566 239.052C174.589 239.042 174.613 239.038 174.637 239.038H239.107C239.155 239.038 239.202 239.058 239.236 239.092C239.27 239.127 239.29 239.174 239.29 239.222C239.29 239.271 239.27 239.318 239.236 239.352C239.202 239.387 239.155 239.406 239.107 239.407Z" fill="#CCCCCC"/>
<path d="M239.107 243.829H174.637C174.613 243.829 174.589 243.824 174.566 243.815C174.544 243.806 174.523 243.792 174.506 243.775C174.489 243.758 174.475 243.738 174.466 243.715C174.456 243.693 174.452 243.669 174.452 243.644C174.452 243.62 174.456 243.596 174.466 243.574C174.475 243.551 174.489 243.531 174.506 243.514C174.523 243.497 174.544 243.483 174.566 243.474C174.589 243.465 174.613 243.46 174.637 243.46H239.107C239.155 243.46 239.202 243.48 239.236 243.515C239.27 243.549 239.29 243.596 239.29 243.644C239.29 243.693 239.27 243.74 239.236 243.774C239.202 243.809 239.155 243.828 239.107 243.829Z" fill="#CCCCCC"/>
<path d="M239.107 248.251H174.637C174.613 248.251 174.589 248.246 174.566 248.237C174.544 248.228 174.523 248.214 174.506 248.197C174.489 248.18 174.475 248.16 174.466 248.137C174.456 248.115 174.452 248.091 174.452 248.067C174.452 248.042 174.456 248.018 174.466 247.996C174.475 247.973 174.489 247.953 174.506 247.936C174.523 247.919 174.544 247.905 174.566 247.896C174.589 247.887 174.613 247.882 174.637 247.882H239.107C239.155 247.883 239.202 247.902 239.236 247.937C239.27 247.971 239.29 248.018 239.29 248.067C239.29 248.115 239.27 248.162 239.236 248.196C239.202 248.231 239.155 248.25 239.107 248.251Z" fill="#CCCCCC"/>
<path d="M308.897 363.787V342.902C308.897 341.979 308.53 341.094 307.877 340.441C307.225 339.788 306.34 339.421 305.417 339.421H226.252C225.329 339.421 224.444 339.788 223.792 340.441C223.139 341.094 222.772 341.979 222.772 342.902V363.787H308.897Z" fill="#CCCCCC"/>
<path d="M308.897 371.619H222.772V398.596H308.897V371.619Z" fill="#CCCCCC"/>
<path d="M222.772 406.428V427.313C222.772 428.236 223.139 429.121 223.792 429.774C224.444 430.427 225.329 430.794 226.252 430.794H305.417C306.34 430.794 307.225 430.427 307.877 429.774C308.53 429.121 308.897 428.236 308.897 427.313V406.428H222.772Z" fill="#CCCCCC"/>
<path d="M265.4 355.085C266.841 355.085 268.01 353.916 268.01 352.474C268.01 351.033 266.841 349.864 265.4 349.864C263.958 349.864 262.79 351.033 262.79 352.474C262.79 353.916 263.958 355.085 265.4 355.085Z" fill="white"/>
<path d="M265.4 389.894C266.841 389.894 268.01 388.725 268.01 387.283C268.01 385.841 266.841 384.672 265.4 384.672C263.958 384.672 262.79 385.841 262.79 387.283C262.79 388.725 263.958 389.894 265.4 389.894Z" fill="white"/>
<path d="M265.54 423.965C266.981 423.965 268.149 422.796 268.149 421.354C268.149 419.913 266.981 418.744 265.54 418.744C264.098 418.744 262.93 419.913 262.93 421.354C262.93 422.796 264.098 423.965 265.54 423.965Z" fill="white"/>
<path d="M299.133 315.608V339.561H239.139C237.532 339.617 235.93 339.349 234.428 338.772C232.927 338.195 231.557 337.322 230.4 336.205C229.243 335.087 228.323 333.748 227.695 332.267C227.067 330.786 226.743 329.193 226.743 327.585C226.743 325.976 227.067 324.383 227.695 322.902C228.323 321.422 229.243 320.082 230.4 318.965C231.557 317.847 232.927 316.974 234.428 316.397C235.93 315.82 237.532 315.552 239.139 315.608H299.133Z" fill="#F2F2F2"/>
<path d="M300.606 339.377C300.606 339.621 300.509 339.856 300.336 340.028C300.164 340.201 299.929 340.298 299.685 340.298H238.071C236.413 340.3 234.771 339.974 233.239 339.341C231.707 338.707 230.315 337.777 229.142 336.605C227.969 335.433 227.039 334.041 226.404 332.509C225.77 330.977 225.443 329.335 225.443 327.677C225.443 326.018 225.77 324.376 226.404 322.844C227.039 321.312 227.969 319.92 229.142 318.748C230.315 317.576 231.707 316.647 233.239 316.013C234.771 315.379 236.413 315.054 238.071 315.055H299.685C299.93 315.055 300.164 315.152 300.336 315.325C300.509 315.498 300.606 315.732 300.606 315.976C300.606 316.221 300.509 316.455 300.336 316.628C300.164 316.801 299.93 316.898 299.685 316.898H238.071C235.215 316.9 232.476 318.037 230.458 320.058C228.439 322.079 227.305 324.82 227.305 327.677C227.305 330.534 228.439 333.274 230.458 335.295C232.476 337.316 235.215 338.453 238.071 338.456H299.685C299.929 338.456 300.164 338.553 300.336 338.726C300.509 338.898 300.606 339.133 300.606 339.377Z" fill="#3F3D56"/>
<path d="M299.132 321.136H234.663C234.639 321.136 234.615 321.131 234.592 321.122C234.57 321.113 234.549 321.099 234.532 321.082C234.515 321.065 234.501 321.045 234.492 321.022C234.482 321 234.478 320.976 234.478 320.951C234.478 320.927 234.482 320.903 234.492 320.881C234.501 320.858 234.515 320.838 234.532 320.821C234.549 320.803 234.57 320.79 234.592 320.781C234.615 320.772 234.639 320.767 234.663 320.767H299.132C299.181 320.767 299.228 320.787 299.262 320.822C299.296 320.856 299.315 320.903 299.315 320.951C299.315 321 299.296 321.047 299.262 321.081C299.228 321.116 299.181 321.135 299.132 321.136Z" fill="#CCCCCC"/>
<path d="M299.132 325.558H234.663C234.639 325.558 234.615 325.553 234.592 325.544C234.57 325.535 234.549 325.521 234.532 325.504C234.515 325.487 234.501 325.467 234.492 325.444C234.482 325.422 234.478 325.398 234.478 325.374C234.478 325.349 234.482 325.325 234.492 325.303C234.501 325.28 234.515 325.26 234.532 325.243C234.549 325.226 234.57 325.212 234.592 325.203C234.615 325.194 234.639 325.189 234.663 325.189H299.132C299.181 325.19 299.228 325.209 299.262 325.244C299.296 325.278 299.315 325.325 299.315 325.374C299.315 325.422 299.296 325.469 299.262 325.503C299.228 325.538 299.181 325.557 299.132 325.558Z" fill="#CCCCCC"/>
<path d="M299.132 329.98H234.663C234.639 329.98 234.615 329.975 234.592 329.966C234.57 329.957 234.549 329.944 234.532 329.926C234.515 329.909 234.501 329.889 234.492 329.867C234.482 329.844 234.478 329.82 234.478 329.796C234.478 329.771 234.482 329.747 234.492 329.725C234.501 329.702 234.515 329.682 234.532 329.665C234.549 329.648 234.57 329.634 234.592 329.625C234.615 329.616 234.639 329.611 234.663 329.611H299.132C299.181 329.612 299.228 329.631 299.262 329.666C299.296 329.7 299.315 329.747 299.315 329.796C299.315 329.844 299.296 329.891 299.262 329.926C299.228 329.96 299.181 329.98 299.132 329.98Z" fill="#CCCCCC"/>
<path d="M299.132 334.402H234.663C234.639 334.402 234.615 334.398 234.592 334.388C234.57 334.379 234.549 334.366 234.532 334.348C234.515 334.331 234.501 334.311 234.492 334.289C234.482 334.266 234.478 334.242 234.478 334.218C234.478 334.193 234.482 334.169 234.492 334.147C234.501 334.124 234.515 334.104 234.532 334.087C234.549 334.07 234.57 334.056 234.592 334.047C234.615 334.038 234.639 334.033 234.663 334.033H299.132C299.181 334.034 299.228 334.053 299.262 334.088C299.296 334.122 299.315 334.169 299.315 334.218C299.315 334.266 299.296 334.313 299.262 334.348C299.228 334.382 299.181 334.402 299.132 334.402Z" fill="#CCCCCC"/>
<path d="M218.255 159.268V6.54527C218.257 4.80996 218.947 3.1463 220.174 1.91925C221.4 0.692203 223.064 0.00197385 224.798 0H345.484C347.219 0.00198535 348.882 0.692219 350.109 1.91926C351.335 3.14631 352.025 4.80996 352.027 6.54527V159.268C352.025 161.003 351.335 162.667 350.109 163.894C348.882 165.121 347.219 165.811 345.484 165.813H224.798C223.064 165.811 221.4 165.121 220.174 163.894C218.947 162.667 218.257 161.003 218.255 159.268ZM224.798 1.4545C223.449 1.45602 222.156 1.99285 221.201 2.94722C220.247 3.9016 219.711 5.19558 219.709 6.54527V159.268C219.711 160.618 220.247 161.912 221.201 162.866C222.156 163.82 223.449 164.357 224.798 164.359H345.484C346.833 164.357 348.127 163.82 349.081 162.866C350.035 161.912 350.572 160.618 350.573 159.268V6.54527C350.572 5.19558 350.035 3.9016 349.081 2.94722C348.127 1.99285 346.833 1.45602 345.484 1.4545H224.798Z" fill="#E6E6E6"/>
<path d="M291.909 70.1373V38.7785C291.91 37.9109 292.255 37.079 292.868 36.4655C293.482 35.852 294.313 35.5069 295.181 35.5059H321.746C322.613 35.5069 323.445 35.852 324.058 36.4655C324.672 37.079 325.017 37.9109 325.018 38.7785V70.1373C325.017 71.005 324.672 71.8368 324.058 72.4503C323.445 73.0639 322.613 73.409 321.746 73.4099H295.181C294.313 73.409 293.482 73.0639 292.868 72.4503C292.255 71.8368 291.91 71.005 291.909 70.1373Z" fill="#6C63FF"/>
<path d="M240.29 84.6823V53.3236C240.291 52.4559 240.636 51.6241 241.25 51.0105C241.863 50.397 242.695 50.0519 243.562 50.051H270.127C270.995 50.0519 271.826 50.397 272.44 51.0105C273.053 51.6241 273.398 52.4559 273.399 53.3236V84.6824C273.398 85.55 273.053 86.3819 272.44 86.9954C271.826 87.6089 270.995 87.954 270.127 87.955H243.562C242.695 87.954 241.863 87.6089 241.25 86.9954C240.636 86.3818 240.291 85.55 240.29 84.6823Z" fill="#CCCCCC"/>
<path d="M281.73 129.045V97.6858C281.731 96.8182 282.076 95.9863 282.69 95.3728C283.303 94.7593 284.135 94.4142 285.002 94.4132H311.568C312.435 94.4142 313.266 94.7593 313.88 95.3728C314.493 95.9863 314.838 96.8182 314.839 97.6858V129.045C314.838 129.912 314.493 130.744 313.88 131.358C313.266 131.971 312.435 132.316 311.568 132.317H285.002C284.135 132.316 283.303 131.971 282.69 131.358C282.076 130.744 281.731 129.912 281.73 129.045Z" fill="#FF6584"/>
<path d="M440.484 272.415H413.151C412.891 272.414 412.635 272.474 412.402 272.589L405.504 276.043C405.277 276.14 405.083 276.301 404.947 276.507C404.811 276.713 404.738 276.954 404.738 277.201C404.738 277.448 404.811 277.689 404.947 277.895C405.083 278.101 405.277 278.262 405.504 278.358L412.402 281.813C412.635 281.928 412.891 281.987 413.151 281.987H440.484C440.861 282.009 441.231 281.881 441.514 281.632C441.798 281.383 441.971 281.032 441.998 280.656V273.746C441.971 273.37 441.798 273.019 441.514 272.77C441.231 272.52 440.861 272.393 440.484 272.415Z" fill="#3F3D56"/>
<path d="M441.998 273.746V280.656C441.971 281.032 441.798 281.383 441.514 281.632C441.231 281.881 440.861 282.009 440.484 281.987H435.039V272.415H440.484C440.861 272.393 441.231 272.52 441.514 272.77C441.798 273.019 441.972 273.37 441.998 273.746Z" fill="#6C63FF"/>
<path d="M440.278 220.724C441.517 220.189 442.854 219.923 444.202 219.941C445.55 219.959 446.879 220.263 448.102 220.831C449.325 221.399 450.415 222.219 451.299 223.237C452.183 224.256 452.842 225.45 453.232 226.741C453.354 227.15 453.447 227.567 453.511 227.99L491.734 246.95L500.58 241.086L511.587 253.761L498.08 264.734C496.456 266.044 494.453 266.794 492.368 266.875C490.284 266.955 488.229 266.361 486.509 265.181L447.727 238.354C447.439 238.476 447.144 238.583 446.844 238.676C445.554 239.066 444.195 239.179 442.857 239.008C441.52 238.837 440.233 238.384 439.082 237.681C437.932 236.978 436.943 236.039 436.18 234.927C435.417 233.814 434.898 232.553 434.656 231.226C434.585 230.841 434.537 230.451 434.515 230.06C434.407 228.101 434.902 226.157 435.932 224.487C436.963 222.818 438.479 221.505 440.278 220.724Z" fill="#FFB8B8"/>
<path d="M519.891 337.462H478.125C478.125 338.663 435.08 339.637 435.08 339.637C434.405 340.146 433.789 340.73 433.245 341.378C431.61 343.329 430.716 345.794 430.722 348.34V350.08C430.723 352.965 431.869 355.731 433.908 357.771C435.947 359.81 438.712 360.957 441.596 360.958H519.891C522.774 360.955 525.538 359.808 527.577 357.769C529.616 355.73 530.763 352.964 530.765 350.08V348.34C530.761 345.456 529.614 342.691 527.576 340.652C525.537 338.613 522.774 337.466 519.891 337.462Z" fill="#3F3D56"/>
<path d="M474.459 433.624H485.769V360.526H474.459V433.624Z" fill="#3F3D56"/>
<path d="M442.271 433.226C442.271 434.449 459.409 433.699 480.549 433.699C501.689 433.699 518.826 434.449 518.826 433.226C518.826 432.004 501.689 422.311 480.549 422.311C459.409 422.311 442.271 432.004 442.271 433.226Z" fill="#3F3D56"/>
<path d="M452.481 424.659L441.816 424.658L436.742 396.988L452.482 396.988L452.481 424.659Z" fill="#FFB8B8"/>
<path d="M455.201 435L420.812 434.999V434.564C420.812 432.805 421.158 431.064 421.83 429.44C422.503 427.815 423.489 426.339 424.732 425.096C425.975 423.853 427.451 422.866 429.075 422.193C430.699 421.521 432.439 421.174 434.197 421.174H434.198L455.201 421.175L455.201 435Z" fill="#2F2E41"/>
<path d="M436.529 407.5L415.267 359.805C413.492 355.785 413.295 351.244 414.717 347.086C416.139 342.928 419.074 339.458 422.939 337.368L469.057 312.629L490.102 310.839L509.515 309.074L509.655 309.311C509.834 309.613 514.007 316.825 511.186 324.732C509.046 330.73 503.479 335.416 494.641 338.658C474.011 346.224 450.179 352.692 440.89 355.12C440.48 355.225 440.096 355.416 439.765 355.68C439.433 355.944 439.161 356.275 438.967 356.652C438.772 357.024 438.656 357.432 438.627 357.852C438.597 358.271 438.655 358.691 438.796 359.087L458.549 403.481C458.756 404.044 458.83 404.647 458.766 405.243C458.703 405.839 458.503 406.413 458.183 406.92C457.863 407.427 457.431 407.854 456.92 408.167C456.409 408.481 455.832 408.672 455.235 408.728L440.475 409.803C440.35 409.815 440.225 409.821 440.101 409.821C439.345 409.82 438.606 409.601 437.972 409.189C437.338 408.777 436.837 408.19 436.529 407.5Z" fill="#2F2E41"/>
<path d="M457.7 424.659L447.036 424.658L441.961 396.988L457.702 396.988L457.7 424.659Z" fill="#FFB8B8"/>
<path d="M460.421 435L426.031 434.999V434.564C426.031 432.805 426.377 431.064 427.05 429.44C427.723 427.815 428.709 426.339 429.952 425.096C431.195 423.853 432.67 422.866 434.294 422.193C435.918 421.521 437.659 421.174 439.417 421.174H439.417L460.421 421.175L460.421 435Z" fill="#2F2E41"/>
<path d="M442.619 410.11L421.356 362.416C419.581 358.396 419.385 353.855 420.807 349.697C422.228 345.538 425.164 342.069 429.028 339.978L475.147 315.24L496.192 313.449L515.604 311.684L515.744 311.921C515.923 312.224 520.097 319.435 517.276 327.343C515.136 333.341 509.569 338.026 500.73 341.268C480.1 348.835 456.268 355.302 446.98 357.731C446.569 357.836 446.186 358.027 445.854 358.291C445.523 358.555 445.251 358.886 445.056 359.262C444.861 359.635 444.746 360.043 444.716 360.462C444.687 360.881 444.744 361.302 444.885 361.698L464.639 406.092C464.845 406.655 464.919 407.258 464.856 407.854C464.793 408.45 464.593 409.024 464.273 409.531C463.953 410.038 463.52 410.464 463.009 410.778C462.498 411.091 461.922 411.283 461.325 411.338L446.565 412.413C446.44 412.425 446.315 412.431 446.191 412.431C445.435 412.431 444.695 412.212 444.061 411.8C443.427 411.388 442.926 410.801 442.619 410.11Z" fill="#2F2E41"/>
<path d="M432.021 264.41C423.086 252.521 416.023 239.335 411.077 225.309C410.79 224.47 410.811 223.557 411.134 222.732C411.458 221.906 412.064 221.223 412.844 220.802L443.419 204.415C443.913 204.148 444.462 203.997 445.024 203.974C445.586 203.951 446.145 204.057 446.66 204.283C447.184 204.511 447.649 204.856 448.02 205.29C448.391 205.725 448.658 206.239 448.801 206.793C452.359 220.309 459.049 232.797 468.327 243.247C468.709 243.672 468.989 244.179 469.146 244.729C469.302 245.279 469.331 245.857 469.23 246.42C469.134 246.974 468.912 247.498 468.582 247.954C468.252 248.409 467.822 248.782 467.326 249.046L436.751 265.434C435.969 265.851 435.065 265.977 434.198 265.79C433.332 265.602 432.561 265.113 432.021 264.41Z" fill="#CCCCCC"/>
<path d="M434.107 262.841C434.272 263.047 434.503 263.188 434.76 263.241C435.018 263.295 435.286 263.256 435.518 263.133L466.093 246.745C466.241 246.668 466.37 246.557 466.468 246.421C466.567 246.286 466.633 246.13 466.661 245.965C466.693 245.79 466.684 245.611 466.635 245.441C466.585 245.27 466.498 245.114 466.378 244.983C456.826 234.225 449.94 221.369 446.276 207.455C446.234 207.283 446.152 207.123 446.038 206.988C445.923 206.853 445.779 206.746 445.617 206.676C445.464 206.608 445.297 206.576 445.129 206.582C444.961 206.589 444.798 206.635 444.651 206.716L414.077 223.103C413.845 223.229 413.665 223.431 413.566 223.675C413.468 223.919 413.458 224.19 413.538 224.441C418.396 238.216 425.332 251.166 434.107 262.841Z" fill="white"/>
<path d="M533.594 260.038L509.649 269.14L503.803 252.896C503.027 250.739 503.038 248.377 503.834 246.228C504.63 244.078 506.16 242.279 508.154 241.149C510.171 240.005 512.531 239.621 514.806 240.066C517.081 240.51 519.123 241.754 520.562 243.572L533.594 260.038Z" fill="#6C63FF"/>
<path d="M472.689 324.399C472.185 324.043 471.763 323.583 471.45 323.05C471.138 322.518 470.942 321.925 470.877 321.311C467.81 292.673 469.946 270.261 477.406 252.795C478.72 249.782 480.7 247.107 483.196 244.97C485.692 242.833 488.64 241.289 491.819 240.456L511.174 239.478L511.275 239.527C515.642 241.667 519.204 245.158 521.433 249.482C523.661 253.807 524.436 258.734 523.645 263.534C517.419 279.95 512.206 297.04 516.182 310.827C516.348 311.404 516.397 312.008 516.325 312.603C516.252 313.199 516.061 313.774 515.761 314.294C515.47 314.796 515.08 315.233 514.613 315.579C514.147 315.925 513.615 316.171 513.05 316.303L476.183 325.076C475.586 325.218 474.966 325.231 474.363 325.114C473.761 324.998 473.19 324.754 472.689 324.399Z" fill="#6C63FF"/>
<path d="M504.715 232.247C516.515 232.247 526.082 222.677 526.082 210.873C526.082 199.069 516.515 189.5 504.715 189.5C492.914 189.5 483.348 199.069 483.348 210.873C483.348 222.677 492.914 232.247 504.715 232.247Z" fill="#FFB8B8"/>
<path d="M445.426 227.801L428.774 235.154C428.14 235.433 427.422 235.449 426.777 235.199C426.132 234.949 425.612 234.453 425.332 233.82L424.92 232.887C424.642 232.254 424.625 231.535 424.876 230.89C425.126 230.245 425.621 229.725 426.254 229.445L442.906 222.092C443.539 221.813 444.257 221.797 444.903 222.047C445.548 222.297 446.067 222.793 446.348 223.426L446.759 224.359C447.038 224.992 447.054 225.711 446.804 226.356C446.554 227.001 446.058 227.521 445.426 227.801Z" fill="#CCCCCC"/>
<path d="M451.515 239.114L434.863 246.467C434.23 246.746 433.512 246.762 432.867 246.512C432.222 246.262 431.702 245.766 431.422 245.133L431.01 244.2C430.731 243.566 430.715 242.848 430.965 242.203C431.215 241.557 431.711 241.037 432.344 240.757L448.996 233.404C449.629 233.126 450.347 233.109 450.992 233.359C451.637 233.61 452.157 234.105 452.437 234.738L452.849 235.672C453.128 236.305 453.144 237.023 452.894 237.669C452.644 238.314 452.148 238.834 451.515 239.114Z" fill="#CCCCCC"/>
<path d="M464.357 283.301L427.233 254.005C426.937 254.109 426.636 254.197 426.332 254.271C425.021 254.577 423.661 254.605 422.34 254.351C421.018 254.097 419.764 253.569 418.661 252.799C417.549 252.028 416.615 251.029 415.921 249.869C415.227 248.708 414.789 247.413 414.636 246.069C414.387 243.921 414.871 241.752 416.009 239.913C417.148 238.075 418.874 236.675 420.907 235.941C422.177 235.486 423.528 235.304 424.872 235.407C426.217 235.51 427.524 235.897 428.709 236.541C429.894 237.184 430.929 238.071 431.748 239.144C432.566 240.216 433.148 241.449 433.457 242.762C433.553 243.178 433.62 243.6 433.657 244.025L470.613 265.352L479.81 260.055L489.998 273.397L475.718 283.578C474.047 284.76 472.038 285.372 469.992 285.322C467.945 285.272 465.969 284.563 464.357 283.301Z" fill="#FFB8B8"/>
<path d="M494.528 277.552L473.346 263.144L483.3 249.041C484.622 247.168 486.563 245.823 488.781 245.243C490.998 244.664 493.349 244.887 495.417 245.873C497.51 246.871 499.177 248.584 500.118 250.704C501.058 252.824 501.21 255.21 500.545 257.432L494.528 277.552Z" fill="#6C63FF"/>
<path d="M496.881 207.69C491.389 211.45 484.178 215.314 478.57 211.311C474.887 208.682 473.726 203.813 475.22 199.541C477.905 191.858 485.284 188.476 492.341 185.883C501.514 182.513 511.502 179.832 520.971 182.245C530.441 184.659 538.81 193.83 537.101 203.455C535.726 211.195 528.427 217.635 529.463 225.428C530.506 233.27 539.323 237.398 547.107 238.8C554.891 240.201 563.602 240.652 569.196 246.245C576.332 253.379 574.55 266.132 567.835 273.665C561.12 281.198 550.987 284.612 541.168 286.933C528.158 290.009 514.087 291.625 501.732 286.521C489.376 281.417 479.761 267.677 483.34 254.793C484.852 249.351 488.413 244.752 491.855 240.274C495.297 235.797 498.783 231.114 500.096 225.621C501.19 221.043 500.38 215.728 497.345 212.294C496.793 211.693 496.446 210.932 496.353 210.121C496.26 209.31 496.426 208.491 496.828 207.78L496.881 207.69Z" fill="#2F2E41"/>
<path d="M95.56 311.536C90.0542 313.471 84.1428 313.956 78.3953 312.944C72.6478 311.931 67.2579 309.454 62.7448 305.753C51.2511 296.103 47.6475 280.205 44.7154 265.484C41.8245 250.97 38.9336 236.456 36.0427 221.942L54.1998 234.448C67.2574 243.442 80.6091 252.724 89.65 265.751C98.691 278.778 102.637 296.561 95.3733 310.657" fill="#E6E6E6"/>
<path d="M94.008 364.252C95.8458 350.861 97.7354 337.299 96.4464 323.765C95.3015 311.745 91.6357 300.006 84.1725 290.38C80.211 285.28 75.3907 280.911 69.9282 277.468C68.5038 276.569 67.1927 278.827 68.611 279.722C78.0627 285.698 85.3732 294.521 89.4886 304.921C94.0339 316.485 94.7639 329.092 93.9806 341.377C93.5069 348.806 92.503 356.187 91.4914 363.558C91.4116 363.891 91.4614 364.242 91.6306 364.54C91.7997 364.838 92.0757 365.061 92.4028 365.163C92.7364 365.253 93.0921 365.208 93.3926 365.037C93.6931 364.867 93.9142 364.584 94.008 364.252Z" fill="#F2F2F2"/>
<path d="M76.3072 340.557C73.9459 344.147 70.7001 347.068 66.8825 349.039C63.065 351.01 58.8043 351.965 54.5111 351.81C43.4775 351.286 34.279 343.583 25.9986 336.27L1.50684 314.639L17.7163 313.863C29.3732 313.305 41.3308 312.784 52.4336 316.38C63.5364 319.976 73.776 328.63 75.8062 340.126" fill="#E6E6E6"/>
<path d="M99.2015 371.949C90.3562 356.293 80.0964 338.893 61.7638 333.332C56.6664 331.791 51.3215 331.239 46.0169 331.705C44.345 331.849 44.7625 334.427 46.4314 334.283C55.3231 333.545 64.1976 335.894 71.5609 340.934C78.6465 345.758 84.1634 352.466 88.8329 359.578C91.693 363.935 94.255 368.477 96.8175 373.012C97.6364 374.462 100.03 373.416 99.2015 371.949Z" fill="#F2F2F2"/>
<path d="M113.374 388.429C113.076 384.974 111.837 381.668 109.79 378.869C107.743 376.071 104.968 373.888 101.767 372.559V363.508H86.591V372.844C83.5474 374.239 80.9281 376.416 79 379.154C77.072 381.892 75.9042 385.092 75.6156 388.429L72.0471 429.924H116.943L113.374 388.429Z" fill="#F2F2F2"/>
</g>
<defs>
<clipPath id="clip0_150_303">
<rect width="602" height="435" fill="white" transform="translate(0.673584)"/>
</clipPath>
</defs>
</svg>
