<svg width="451" height="393" viewBox="0 0 451 393" fill="none" xmlns="http://www.w3.org/2000/svg">
<g clip-path="url(#clip0_308_1019)">
<path d="M406.237 204.502C406.296 253.003 387.549 299.637 353.938 334.602C351.912 336.724 349.831 338.794 347.695 340.814C344.441 343.909 341.078 346.884 337.606 349.739C305.122 376.502 264.569 391.541 222.489 392.43C221.087 392.462 219.68 392.478 218.267 392.478C184.708 392.478 142.498 374.553 104.193 349.739C101.024 347.686 97.8826 345.586 94.7699 343.438C93.3149 342.443 91.867 341.434 90.4262 340.411C75.6524 329.98 61.6291 318.523 48.4598 306.127C39.8373 298.035 31.7518 289.389 24.2545 280.245C-5.17805 243.94 -11.6698 211.227 30.2913 204.502C35.2593 203.709 40.081 202.86 44.7562 201.957C51.5284 200.656 58.0096 199.25 64.1998 197.741C72.5381 195.714 80.3719 193.517 87.7014 191.148C90.1669 190.355 92.576 189.545 94.9286 188.72C129.71 176.503 152.99 160.573 168.835 143.288C171.523 140.362 174.001 137.401 176.269 134.405C179.739 129.844 182.891 125.05 185.702 120.056C189.583 113.118 192.842 105.85 195.443 98.3376L195.586 97.9249C208.193 61.5562 204.358 27.8222 218.267 16.5317C277.725 -31.736 351.748 37.0017 386.492 118.062C388.244 122.146 389.891 126.255 391.434 130.389C392.127 132.236 392.795 134.086 393.439 135.939C395.132 140.77 396.668 145.612 398.047 150.468C398.576 152.319 399.081 154.169 399.561 156.018C400.074 158.012 400.566 160.002 401.021 161.991C404.402 176.556 406.237 190.921 406.237 204.502Z" fill="#F2F2F2"/>
<path d="M222.489 392.43C221.087 392.462 219.68 392.478 218.267 392.478C184.708 392.478 142.498 374.553 104.193 349.739C101.023 347.686 97.8825 345.586 94.7698 343.438L97.4998 326.825L180.147 315.852L221.627 347.57L222.489 392.43Z" fill="#2F2E41"/>
<path d="M226.468 95.7822H214.69C214.326 95.7824 213.976 95.9274 213.718 96.1853C213.46 96.4432 213.315 96.793 213.315 97.1577V108.94C213.315 109.121 213.351 109.299 213.42 109.466C213.489 109.632 213.591 109.783 213.719 109.911C213.846 110.038 213.998 110.139 214.165 110.207C214.331 110.276 214.51 110.311 214.69 110.311H226.468C226.832 110.311 227.181 110.167 227.439 109.91C227.697 109.653 227.842 109.304 227.843 108.94V97.1577C227.842 96.7932 227.697 96.444 227.439 96.1863C227.181 95.9285 226.832 95.7833 226.468 95.7822Z" fill="white"/>
<path d="M226.468 115.861H214.69C214.326 115.861 213.976 116.006 213.718 116.264C213.46 116.522 213.315 116.871 213.315 117.236V129.019C213.315 129.199 213.351 129.378 213.42 129.544C213.489 129.711 213.591 129.862 213.719 129.989C213.846 130.116 213.998 130.217 214.165 130.286C214.331 130.355 214.51 130.39 214.69 130.389H226.468C226.832 130.389 227.181 130.245 227.439 129.988C227.697 129.731 227.842 129.383 227.843 129.019V117.236C227.842 116.872 227.697 116.522 227.439 116.265C227.182 116.007 226.832 115.862 226.468 115.861Z" fill="#E6E6E6"/>
<path d="M226.468 135.939H214.69C214.326 135.939 213.976 136.084 213.718 136.342C213.46 136.6 213.315 136.95 213.315 137.315V149.092C213.315 149.273 213.35 149.452 213.419 149.619C213.488 149.786 213.589 149.938 213.717 150.065C213.845 150.193 213.997 150.295 214.164 150.364C214.331 150.433 214.51 150.468 214.69 150.468H226.468C226.832 150.467 227.182 150.322 227.44 150.064C227.698 149.807 227.843 149.457 227.843 149.092V137.315C227.842 136.95 227.697 136.601 227.439 136.343C227.182 136.085 226.832 135.94 226.468 135.939Z" fill="#E6E6E6"/>
<path d="M227.822 157.15C227.763 156.833 227.596 156.547 227.349 156.34C227.102 156.133 226.79 156.019 226.468 156.018H214.69C214.326 156.018 213.976 156.163 213.718 156.421C213.46 156.679 213.315 157.028 213.315 157.393V169.17C213.315 169.351 213.35 169.53 213.419 169.697C213.488 169.864 213.589 170.016 213.717 170.144C213.845 170.272 213.997 170.373 214.164 170.442C214.331 170.511 214.51 170.546 214.69 170.546H226.468C226.832 170.546 227.182 170.401 227.44 170.143C227.698 169.885 227.843 169.535 227.843 169.17V157.393C227.844 157.312 227.837 157.23 227.822 157.15Z" fill="#E6E6E6"/>
<path d="M227.002 176.202C226.833 176.132 226.651 176.096 226.468 176.096H214.69C214.51 176.096 214.331 176.131 214.164 176.2C213.997 176.269 213.845 176.37 213.717 176.498C213.589 176.626 213.488 176.778 213.419 176.945C213.35 177.112 213.315 177.291 213.315 177.472V189.249C213.314 189.43 213.349 189.609 213.418 189.776C213.487 189.944 213.588 190.096 213.716 190.223C213.844 190.351 213.996 190.453 214.163 190.521C214.33 190.59 214.51 190.625 214.69 190.625H226.468C226.832 190.624 227.182 190.479 227.44 190.221C227.698 189.964 227.843 189.614 227.843 189.249V177.472C227.843 177.201 227.763 176.936 227.613 176.711C227.464 176.485 227.251 176.308 227.002 176.202Z" fill="#E6E6E6"/>
<path d="M251.207 95.7822H239.43C239.065 95.7824 238.715 95.9274 238.458 96.1853C238.2 96.4432 238.055 96.793 238.054 97.1577V108.94C238.055 109.121 238.09 109.299 238.16 109.466C238.229 109.632 238.33 109.783 238.458 109.911C238.586 110.038 238.737 110.139 238.904 110.207C239.071 110.276 239.25 110.311 239.43 110.311H251.207C251.571 110.311 251.92 110.167 252.178 109.91C252.436 109.653 252.582 109.304 252.583 108.94V97.1577C252.582 96.7932 252.437 96.444 252.179 96.1863C251.921 95.9285 251.572 95.7833 251.207 95.7822Z" fill="#E6E6E6"/>
<path d="M251.207 115.861H239.43C239.065 115.861 238.715 116.006 238.457 116.264C238.2 116.522 238.055 116.871 238.054 117.236V129.019C238.055 129.199 238.09 129.378 238.16 129.544C238.229 129.711 238.33 129.862 238.458 129.989C238.586 130.116 238.737 130.217 238.904 130.286C239.071 130.355 239.25 130.39 239.43 130.389H251.207C251.571 130.389 251.92 130.245 252.178 129.988C252.436 129.731 252.582 129.383 252.583 129.019V117.236C252.582 116.872 252.437 116.522 252.179 116.265C251.921 116.007 251.572 115.862 251.207 115.861Z" fill="#6C63FF"/>
<path d="M251.207 135.939H239.43C239.065 135.939 238.715 136.084 238.457 136.342C238.2 136.6 238.055 136.95 238.054 137.315V149.092C238.054 149.273 238.089 149.452 238.158 149.619C238.227 149.786 238.329 149.938 238.457 150.065C238.584 150.193 238.736 150.295 238.903 150.364C239.07 150.433 239.249 150.468 239.43 150.468H251.207C251.572 150.467 251.922 150.322 252.18 150.064C252.438 149.807 252.583 149.457 252.583 149.092V137.315C252.582 136.95 252.437 136.601 252.179 136.343C251.921 136.085 251.572 135.94 251.207 135.939Z" fill="#6C63FF"/>
<path d="M251.207 156.018H239.43C239.142 156.018 238.861 156.109 238.627 156.278C238.393 156.447 238.219 156.685 238.128 156.959C238.08 157.099 238.054 157.245 238.054 157.393V169.17C238.054 169.351 238.089 169.53 238.158 169.697C238.227 169.864 238.329 170.016 238.456 170.144C238.584 170.272 238.736 170.373 238.903 170.442C239.07 170.511 239.249 170.546 239.43 170.546H251.207C251.572 170.546 251.922 170.401 252.18 170.143C252.438 169.885 252.583 169.535 252.583 169.17V157.393C252.582 157.029 252.436 156.679 252.179 156.422C251.921 156.164 251.572 156.019 251.207 156.018Z" fill="#6C63FF"/>
<path d="M251.207 176.096H239.43C239.249 176.096 239.07 176.131 238.903 176.2C238.736 176.269 238.584 176.37 238.457 176.498C238.329 176.626 238.227 176.778 238.158 176.945C238.089 177.112 238.054 177.291 238.054 177.472V189.249C238.054 189.43 238.089 189.609 238.158 189.776C238.227 189.943 238.329 190.095 238.457 190.222C238.584 190.35 238.736 190.452 238.903 190.521C239.07 190.59 239.249 190.625 239.43 190.625H251.207C251.572 190.624 251.922 190.479 252.18 190.221C252.438 189.964 252.583 189.614 252.583 189.249V177.472C252.583 177.107 252.438 176.757 252.18 176.499C251.922 176.241 251.572 176.096 251.207 176.096Z" fill="#E6E6E6"/>
<path d="M275.947 95.7822H264.17C263.805 95.7824 263.455 95.9274 263.197 96.1853C262.939 96.4432 262.794 96.793 262.794 97.1577V108.94C262.794 109.121 262.83 109.299 262.899 109.466C262.969 109.632 263.07 109.783 263.198 109.911C263.326 110.038 263.477 110.139 263.644 110.207C263.811 110.276 263.989 110.311 264.17 110.311H275.947C276.311 110.311 276.66 110.167 276.918 109.91C277.176 109.653 277.321 109.304 277.323 108.94V97.1577C277.322 96.7932 277.176 96.444 276.918 96.1863C276.661 95.9285 276.311 95.7833 275.947 95.7822Z" fill="#6C63FF"/>
<path d="M275.947 115.861H264.17C263.805 115.861 263.455 116.006 263.197 116.264C262.939 116.522 262.794 116.871 262.794 117.236V129.019C262.794 129.199 262.83 129.378 262.899 129.544C262.969 129.711 263.07 129.862 263.198 129.989C263.326 130.116 263.477 130.217 263.644 130.286C263.811 130.355 263.989 130.39 264.17 130.389H275.947C276.311 130.389 276.66 130.245 276.918 129.988C277.176 129.731 277.321 129.383 277.323 129.019V117.236C277.322 116.872 277.176 116.522 276.919 116.265C276.661 116.007 276.311 115.862 275.947 115.861Z" fill="#6C63FF"/>
<path d="M275.947 135.939H264.17C263.805 135.939 263.455 136.084 263.197 136.342C262.939 136.6 262.794 136.95 262.794 137.315V149.092C262.794 149.273 262.829 149.452 262.898 149.619C262.967 149.786 263.068 149.938 263.196 150.065C263.324 150.193 263.476 150.295 263.643 150.364C263.81 150.433 263.989 150.468 264.17 150.468H275.947C276.312 150.467 276.662 150.322 276.919 150.064C277.177 149.807 277.322 149.457 277.323 149.092V137.315C277.322 136.95 277.176 136.601 276.919 136.343C276.661 136.085 276.311 135.94 275.947 135.939Z" fill="#E6E6E6"/>
<path d="M275.947 156.018H264.17C263.805 156.018 263.455 156.163 263.197 156.421C262.939 156.679 262.794 157.028 262.794 157.393V169.17C262.794 169.351 262.829 169.53 262.898 169.697C262.967 169.864 263.068 170.016 263.196 170.144C263.324 170.272 263.476 170.373 263.643 170.442C263.81 170.511 263.989 170.546 264.17 170.546H275.947C276.312 170.546 276.662 170.401 276.92 170.143C277.177 169.885 277.322 169.535 277.323 169.17V157.393C277.322 157.029 277.176 156.679 276.919 156.422C276.661 156.164 276.311 156.019 275.947 156.018Z" fill="#6C63FF"/>
<path d="M275.947 176.096H264.17C263.989 176.096 263.81 176.131 263.643 176.2C263.476 176.269 263.324 176.37 263.196 176.498C263.068 176.626 262.967 176.778 262.898 176.945C262.829 177.112 262.794 177.291 262.794 177.472V189.249C262.794 189.43 262.829 189.609 262.898 189.776C262.967 189.943 263.068 190.095 263.196 190.222C263.324 190.35 263.476 190.452 263.643 190.521C263.81 190.59 263.989 190.625 264.17 190.625H275.947C276.312 190.624 276.662 190.479 276.92 190.221C277.177 189.964 277.322 189.614 277.323 189.249V177.472C277.322 177.107 277.177 176.757 276.92 176.499C276.662 176.241 276.312 176.096 275.947 176.096Z" fill="#6C63FF"/>
<path d="M300.687 95.7822H288.909C288.545 95.7824 288.195 95.9274 287.937 96.1853C287.679 96.4432 287.534 96.793 287.534 97.1577V108.94C287.534 109.121 287.57 109.299 287.639 109.466C287.708 109.632 287.81 109.783 287.937 109.911C288.065 110.038 288.217 110.139 288.383 110.207C288.55 110.276 288.729 110.311 288.909 110.311H300.687C301.051 110.311 301.4 110.167 301.658 109.91C301.915 109.653 302.061 109.304 302.062 108.94V97.1577C302.061 96.7932 301.916 96.444 301.658 96.1863C301.4 95.9285 301.051 95.7833 300.687 95.7822Z" fill="#6C63FF"/>
<path d="M300.687 115.861H288.909C288.544 115.861 288.195 116.006 287.937 116.264C287.679 116.522 287.534 116.871 287.534 117.236V129.019C287.534 129.199 287.57 129.378 287.639 129.544C287.708 129.711 287.81 129.862 287.937 129.989C288.065 130.116 288.217 130.217 288.383 130.286C288.55 130.355 288.729 130.39 288.909 130.389H300.687C301.051 130.389 301.4 130.245 301.658 129.988C301.915 129.731 302.061 129.383 302.062 129.019V117.236C302.061 116.872 301.916 116.522 301.658 116.265C301.4 116.007 301.051 115.862 300.687 115.861Z" fill="white"/>
<path d="M300.687 135.939H288.909C288.544 135.939 288.195 136.084 287.937 136.342C287.679 136.6 287.534 136.95 287.534 137.315V149.092C287.533 149.273 287.569 149.452 287.638 149.619C287.707 149.786 287.808 149.938 287.936 150.065C288.064 150.193 288.215 150.295 288.382 150.364C288.549 150.433 288.729 150.468 288.909 150.468H300.687C301.051 150.467 301.401 150.322 301.659 150.064C301.917 149.807 302.062 149.457 302.062 149.092V137.315C302.061 136.95 301.916 136.601 301.658 136.343C301.4 136.085 301.051 135.94 300.687 135.939Z" fill="white"/>
<path d="M300.687 156.018H288.909C288.544 156.018 288.195 156.163 287.937 156.421C287.679 156.679 287.534 157.028 287.534 157.393V169.17C287.533 169.351 287.569 169.53 287.638 169.697C287.707 169.864 287.808 170.016 287.936 170.144C288.064 170.272 288.215 170.373 288.382 170.442C288.549 170.511 288.729 170.546 288.909 170.546H300.687C301.051 170.546 301.401 170.401 301.659 170.143C301.917 169.885 302.062 169.535 302.062 169.17V157.393C302.061 157.029 301.916 156.679 301.658 156.422C301.4 156.164 301.051 156.019 300.687 156.018Z" fill="#E6E6E6"/>
<path d="M300.687 176.096H288.909C288.729 176.096 288.549 176.131 288.382 176.2C288.215 176.269 288.064 176.37 287.936 176.498C287.808 176.626 287.707 176.778 287.638 176.945C287.569 177.112 287.533 177.291 287.534 177.472V189.249C287.533 189.43 287.569 189.609 287.638 189.776C287.707 189.943 287.808 190.095 287.936 190.222C288.064 190.35 288.215 190.452 288.382 190.521C288.549 190.59 288.729 190.625 288.909 190.625H300.687C301.051 190.624 301.401 190.479 301.659 190.221C301.917 189.964 302.062 189.614 302.062 189.249V177.472C302.062 177.107 301.917 176.757 301.659 176.499C301.401 176.241 301.051 176.096 300.687 176.096Z" fill="#6C63FF"/>
<path d="M325.426 95.7822H313.644C313.28 95.7835 312.931 95.929 312.674 96.1868C312.417 96.4447 312.273 96.7938 312.273 97.1577V108.94C312.274 109.304 312.418 109.652 312.675 109.909C312.932 110.166 313.28 110.311 313.644 110.311H325.426C325.79 110.311 326.139 110.167 326.397 109.91C326.655 109.653 326.801 109.304 326.802 108.94V97.1577C326.801 96.7932 326.656 96.444 326.398 96.1863C326.14 95.9285 325.791 95.7833 325.426 95.7822Z" fill="white"/>
<path d="M325.426 115.861H313.644C313.28 115.862 312.931 116.007 312.674 116.265C312.417 116.523 312.273 116.872 312.273 117.236V129.019C312.274 129.382 312.418 129.731 312.675 129.988C312.932 130.245 313.28 130.389 313.644 130.389H325.426C325.79 130.389 326.139 130.245 326.397 129.988C326.655 129.731 326.801 129.383 326.802 129.019V117.236C326.801 116.872 326.656 116.522 326.398 116.265C326.14 116.007 325.791 115.862 325.426 115.861Z" fill="white"/>
<path d="M325.426 135.939H313.644C313.28 135.94 312.931 136.086 312.674 136.344C312.417 136.602 312.273 136.951 312.273 137.315V149.092C312.273 149.272 312.308 149.451 312.377 149.618C312.445 149.785 312.546 149.936 312.673 150.064C312.801 150.192 312.952 150.293 313.118 150.362C313.285 150.432 313.463 150.467 313.644 150.468H325.426C325.791 150.467 326.141 150.322 326.399 150.064C326.657 149.807 326.802 149.457 326.802 149.092V137.315C326.801 136.95 326.656 136.601 326.398 136.343C326.14 136.085 325.791 135.94 325.426 135.939Z" fill="white"/>
<path d="M325.426 156.018H313.644C313.28 156.019 312.931 156.164 312.674 156.422C312.417 156.68 312.273 157.029 312.273 157.393V169.17C312.273 169.351 312.308 169.53 312.377 169.696C312.445 169.863 312.546 170.015 312.673 170.142C312.801 170.27 312.952 170.372 313.118 170.441C313.285 170.51 313.463 170.546 313.644 170.546H325.426C325.791 170.546 326.141 170.401 326.399 170.143C326.657 169.885 326.802 169.535 326.802 169.17V157.393C326.801 157.029 326.656 156.679 326.398 156.422C326.14 156.164 325.791 156.019 325.426 156.018Z" fill="#6C63FF"/>
<path d="M325.426 176.096H313.644C313.463 176.096 313.285 176.132 313.118 176.201C312.952 176.271 312.801 176.372 312.673 176.5C312.546 176.627 312.445 176.779 312.377 176.946C312.308 177.113 312.273 177.291 312.273 177.472V189.249C312.273 189.429 312.308 189.608 312.377 189.775C312.445 189.942 312.546 190.093 312.673 190.221C312.801 190.349 312.952 190.45 313.118 190.519C313.285 190.589 313.463 190.624 313.644 190.625H325.426C325.791 190.624 326.141 190.479 326.399 190.221C326.657 189.964 326.802 189.614 326.802 189.249V177.472C326.802 177.107 326.657 176.757 326.399 176.499C326.141 176.241 325.791 176.096 325.426 176.096Z" fill="#E6E6E6"/>
<path d="M350.166 95.7822H338.383C338.019 95.7835 337.671 95.929 337.414 96.1868C337.157 96.4447 337.013 96.7938 337.013 97.1577V108.94C337.013 109.304 337.157 109.652 337.414 109.909C337.671 110.166 338.02 110.311 338.383 110.311H350.166C350.53 110.311 350.879 110.167 351.137 109.91C351.395 109.653 351.54 109.304 351.541 108.94V97.1577C351.54 96.7933 351.395 96.444 351.137 96.1863C350.88 95.9285 350.53 95.7833 350.166 95.7822Z" fill="white"/>
<path d="M350.166 115.861H338.383C338.019 115.862 337.671 116.007 337.414 116.265C337.157 116.523 337.013 116.872 337.013 117.236V129.019C337.013 129.382 337.157 129.731 337.414 129.988C337.671 130.245 338.02 130.389 338.383 130.389H350.166C350.53 130.389 350.879 130.245 351.137 129.988C351.395 129.731 351.54 129.383 351.541 129.019V117.236C351.54 116.872 351.395 116.522 351.137 116.265C350.88 116.007 350.53 115.862 350.166 115.861Z" fill="white"/>
<path d="M350.166 135.939H338.383C338.019 135.94 337.671 136.086 337.414 136.344C337.157 136.602 337.013 136.951 337.013 137.315V149.092C337.012 149.272 337.048 149.451 337.116 149.618C337.185 149.785 337.286 149.936 337.413 150.064C337.54 150.192 337.691 150.293 337.858 150.362C338.024 150.432 338.203 150.467 338.383 150.468H350.166C350.531 150.467 350.88 150.322 351.138 150.064C351.396 149.807 351.541 149.457 351.541 149.092V137.315C351.54 136.95 351.395 136.601 351.137 136.343C350.88 136.085 350.53 135.94 350.166 135.939Z" fill="#6C63FF"/>
<path d="M350.166 156.018H338.383C338.019 156.019 337.671 156.164 337.414 156.422C337.157 156.68 337.013 157.029 337.013 157.393V169.17C337.012 169.351 337.047 169.53 337.116 169.696C337.185 169.863 337.286 170.015 337.413 170.142C337.54 170.27 337.691 170.372 337.858 170.441C338.024 170.51 338.203 170.546 338.383 170.546H350.166C350.531 170.546 350.88 170.401 351.138 170.143C351.396 169.885 351.541 169.535 351.541 169.17V157.393C351.54 157.029 351.395 156.679 351.137 156.422C350.88 156.164 350.53 156.019 350.166 156.018Z" fill="#E6E6E6"/>
<path d="M350.166 176.096H338.383C338.203 176.096 338.024 176.132 337.858 176.201C337.691 176.271 337.54 176.372 337.413 176.5C337.286 176.627 337.185 176.779 337.116 176.946C337.047 177.113 337.012 177.291 337.013 177.472V189.249C337.012 189.429 337.047 189.608 337.116 189.775C337.185 189.942 337.286 190.093 337.413 190.221C337.54 190.349 337.691 190.45 337.858 190.519C338.024 190.589 338.203 190.624 338.383 190.625H350.166C350.531 190.624 350.88 190.479 351.138 190.221C351.396 189.964 351.541 189.614 351.541 189.249V177.472C351.541 177.107 351.396 176.757 351.138 176.499C350.88 176.241 350.531 176.096 350.166 176.096Z" fill="white"/>
<path d="M374.906 95.7822H363.123C362.759 95.7835 362.41 95.929 362.154 96.1868C361.897 96.4447 361.753 96.7938 361.753 97.1577V108.94C361.753 109.304 361.897 109.652 362.154 109.909C362.411 110.166 362.76 110.311 363.123 110.311H374.906C375.269 110.311 375.619 110.167 375.877 109.91C376.134 109.653 376.28 109.304 376.281 108.94V97.1577C376.28 96.7933 376.135 96.444 375.877 96.1863C375.619 95.9285 375.27 95.7833 374.906 95.7822Z" fill="#6C63FF"/>
<path d="M374.906 115.861H363.123C362.759 115.862 362.41 116.007 362.154 116.265C361.897 116.523 361.753 116.872 361.753 117.236V129.019C361.753 129.382 361.897 129.731 362.154 129.988C362.411 130.245 362.76 130.389 363.123 130.389H374.906C375.269 130.389 375.619 130.245 375.877 129.988C376.134 129.731 376.28 129.383 376.281 129.019V117.236C376.28 116.872 376.135 116.522 375.877 116.265C375.619 116.007 375.27 115.862 374.906 115.861Z" fill="#6C63FF"/>
<path d="M374.906 135.939H363.123C362.759 135.94 362.41 136.086 362.154 136.344C361.897 136.602 361.753 136.951 361.753 137.315V149.092C361.752 149.272 361.787 149.451 361.856 149.618C361.924 149.785 362.025 149.936 362.153 150.064C362.28 150.192 362.431 150.293 362.598 150.362C362.764 150.432 362.943 150.467 363.123 150.468H374.906C375.27 150.467 375.62 150.322 375.878 150.064C376.136 149.807 376.281 149.457 376.281 149.092V137.315C376.28 136.95 376.135 136.601 375.877 136.343C375.619 136.085 375.27 135.94 374.906 135.939Z" fill="#E6E6E6"/>
<path d="M374.906 156.018H363.123C362.759 156.019 362.41 156.164 362.154 156.422C361.897 156.68 361.753 157.029 361.753 157.393V169.17C361.752 169.351 361.787 169.53 361.856 169.696C361.924 169.863 362.025 170.015 362.153 170.142C362.28 170.27 362.431 170.372 362.598 170.441C362.764 170.51 362.943 170.546 363.123 170.546H374.906C375.27 170.546 375.62 170.401 375.878 170.143C376.136 169.885 376.281 169.535 376.281 169.17V157.393C376.28 157.029 376.135 156.679 375.877 156.422C375.619 156.164 375.27 156.019 374.906 156.018Z" fill="white"/>
<path d="M374.906 176.096H363.123C362.943 176.096 362.764 176.132 362.598 176.201C362.431 176.271 362.28 176.372 362.153 176.5C362.025 176.627 361.924 176.779 361.856 176.946C361.787 177.113 361.752 177.291 361.753 177.472V189.249C361.752 189.429 361.787 189.608 361.856 189.775C361.924 189.942 362.025 190.093 362.153 190.221C362.28 190.349 362.431 190.45 362.598 190.519C362.764 190.589 362.943 190.624 363.123 190.625H374.906C375.27 190.624 375.62 190.479 375.878 190.221C376.136 189.964 376.281 189.614 376.281 189.249V177.472C376.281 177.107 376.136 176.757 375.878 176.499C375.62 176.241 375.27 176.096 374.906 176.096Z" fill="#6C63FF"/>
<path d="M399.645 95.7822H387.863C387.499 95.7835 387.15 95.929 386.893 96.1868C386.636 96.4447 386.492 96.7938 386.492 97.1577V108.94C386.492 109.304 386.637 109.652 386.894 109.909C387.151 110.166 387.499 110.311 387.863 110.311H399.645C400.009 110.311 400.358 110.167 400.616 109.91C400.874 109.653 401.019 109.304 401.021 108.94V97.1577C401.02 96.7933 400.874 96.444 400.617 96.1863C400.359 95.9285 400.01 95.7833 399.645 95.7822Z" fill="#6C63FF"/>
<path d="M399.645 115.861H387.863C387.499 115.862 387.15 116.007 386.893 116.265C386.636 116.523 386.492 116.872 386.492 117.236V129.019C386.492 129.382 386.637 129.731 386.894 129.988C387.151 130.245 387.499 130.389 387.863 130.389H399.645C400.009 130.389 400.358 130.245 400.616 129.988C400.874 129.731 401.019 129.383 401.021 129.019V117.236C401.02 116.872 400.874 116.522 400.617 116.265C400.359 116.007 400.01 115.862 399.645 115.861Z" fill="#6C63FF"/>
<path d="M399.645 135.939H387.863C387.499 135.94 387.15 136.086 386.893 136.344C386.636 136.602 386.492 136.951 386.492 137.315V149.092C386.492 149.272 386.527 149.451 386.595 149.618C386.664 149.785 386.765 149.936 386.892 150.064C387.019 150.192 387.171 150.293 387.337 150.362C387.504 150.432 387.682 150.467 387.863 150.468H399.645C400.01 150.467 400.36 150.322 400.618 150.064C400.875 149.807 401.02 149.457 401.021 149.092V137.315C401.02 136.95 400.874 136.601 400.617 136.343C400.359 136.085 400.01 135.94 399.645 135.939Z" fill="#E6E6E6"/>
<path d="M399.645 156.018H387.863C387.499 156.019 387.15 156.164 386.893 156.422C386.636 156.68 386.492 157.029 386.492 157.393V169.17C386.492 169.351 386.527 169.53 386.595 169.696C386.664 169.863 386.765 170.015 386.892 170.142C387.019 170.27 387.171 170.372 387.337 170.441C387.504 170.51 387.682 170.546 387.863 170.546H399.645C400.01 170.546 400.36 170.401 400.618 170.143C400.875 169.885 401.02 169.535 401.021 169.17V157.393C401.02 157.029 400.874 156.679 400.617 156.422C400.359 156.164 400.01 156.019 399.645 156.018Z" fill="#6C63FF"/>
<path d="M399.645 176.096H387.863C387.682 176.096 387.504 176.132 387.337 176.201C387.171 176.271 387.019 176.372 386.892 176.5C386.765 176.627 386.664 176.779 386.595 176.946C386.527 177.113 386.492 177.291 386.492 177.472V189.249C386.492 189.429 386.527 189.608 386.595 189.775C386.664 189.942 386.765 190.093 386.892 190.221C387.019 190.349 387.171 190.45 387.337 190.519C387.504 190.589 387.682 190.624 387.863 190.625H399.645C400.01 190.624 400.36 190.479 400.618 190.221C400.875 189.963 401.02 189.614 401.021 189.249V177.472C401.02 177.107 400.875 176.757 400.618 176.499C400.36 176.241 400.01 176.096 399.645 176.096Z" fill="#6C63FF"/>
<path d="M424.385 95.7822H412.602C412.238 95.7835 411.89 95.929 411.633 96.1868C411.376 96.4447 411.232 96.7938 411.232 97.1577V108.94C411.232 109.304 411.376 109.652 411.633 109.909C411.89 110.166 412.239 110.311 412.602 110.311H424.385C424.749 110.311 425.098 110.167 425.356 109.91C425.614 109.653 425.759 109.304 425.76 108.94V97.1577C425.759 96.7933 425.614 96.444 425.356 96.1863C425.099 95.9285 424.749 95.7833 424.385 95.7822Z" fill="#E6E6E6"/>
<path d="M424.385 115.861H412.602C412.238 115.862 411.89 116.007 411.633 116.265C411.376 116.523 411.232 116.872 411.232 117.236V129.019C411.232 129.382 411.376 129.731 411.633 129.988C411.89 130.245 412.239 130.389 412.602 130.389H424.385C424.749 130.389 425.098 130.245 425.356 129.988C425.614 129.731 425.759 129.383 425.76 129.019V117.236C425.759 116.872 425.614 116.522 425.356 116.265C425.099 116.007 424.749 115.862 424.385 115.861Z" fill="#6C63FF"/>
<path d="M424.385 135.939H412.602C412.238 135.94 411.89 136.086 411.633 136.344C411.376 136.602 411.232 136.951 411.232 137.315V149.092C411.231 149.272 411.266 149.451 411.335 149.618C411.404 149.785 411.505 149.936 411.632 150.064C411.759 150.192 411.91 150.293 412.077 150.362C412.243 150.432 412.422 150.467 412.602 150.468H424.385C424.75 150.467 425.099 150.322 425.357 150.064C425.615 149.807 425.76 149.457 425.76 149.092V137.315C425.759 136.95 425.614 136.601 425.356 136.343C425.099 136.085 424.749 135.94 424.385 135.939Z" fill="#6C63FF"/>
<path d="M424.385 156.018H412.602C412.238 156.019 411.89 156.164 411.633 156.422C411.376 156.68 411.232 157.029 411.232 157.393V169.17C411.231 169.351 411.266 169.53 411.335 169.696C411.404 169.863 411.505 170.015 411.632 170.142C411.759 170.27 411.91 170.372 412.077 170.441C412.243 170.51 412.422 170.546 412.602 170.546H424.385C424.75 170.546 425.099 170.401 425.357 170.143C425.615 169.885 425.76 169.535 425.76 169.17V157.393C425.759 157.029 425.614 156.679 425.356 156.422C425.099 156.164 424.749 156.019 424.385 156.018Z" fill="#6C63FF"/>
<path d="M424.385 176.096H412.602C412.422 176.096 412.243 176.132 412.077 176.201C411.91 176.271 411.759 176.372 411.632 176.5C411.505 176.627 411.404 176.779 411.335 176.946C411.266 177.113 411.231 177.291 411.232 177.472V189.249C411.231 189.429 411.266 189.608 411.335 189.775C411.404 189.942 411.505 190.093 411.632 190.221C411.759 190.349 411.91 190.45 412.077 190.519C412.243 190.589 412.422 190.624 412.602 190.625H424.385C424.75 190.624 425.099 190.479 425.357 190.221C425.615 189.963 425.76 189.614 425.76 189.249V177.472C425.76 177.107 425.615 176.757 425.357 176.499C425.099 176.241 424.75 176.096 424.385 176.096Z" fill="#E6E6E6"/>
<path d="M449.124 95.7822H437.342C436.978 95.7835 436.629 95.929 436.372 96.1868C436.116 96.4447 435.971 96.7938 435.971 97.1577V108.94C435.972 109.304 436.116 109.652 436.373 109.909C436.63 110.166 436.978 110.311 437.342 110.311H449.124C449.488 110.311 449.837 110.167 450.095 109.91C450.353 109.653 450.499 109.304 450.5 108.94V97.1577C450.499 96.7933 450.354 96.444 450.096 96.1863C449.838 95.9285 449.489 95.7833 449.124 95.7822Z" fill="#E6E6E6"/>
<path d="M449.124 115.861H437.342C436.978 115.862 436.629 116.007 436.372 116.265C436.115 116.523 435.971 116.872 435.971 117.236V129.019C435.972 129.382 436.116 129.731 436.373 129.988C436.63 130.245 436.978 130.389 437.342 130.389H449.124C449.488 130.389 449.837 130.245 450.095 129.988C450.353 129.731 450.499 129.383 450.5 129.019V117.236C450.499 116.872 450.354 116.522 450.096 116.265C449.838 116.007 449.489 115.862 449.124 115.861Z" fill="#E6E6E6"/>
<path d="M449.124 135.939H437.342C436.978 135.94 436.629 136.086 436.372 136.344C436.115 136.602 435.971 136.951 435.971 137.315V149.092C435.971 149.272 436.006 149.451 436.075 149.618C436.143 149.785 436.244 149.936 436.371 150.064C436.499 150.192 436.65 150.293 436.816 150.362C436.983 150.432 437.161 150.467 437.342 150.468H449.124C449.489 150.467 449.839 150.322 450.097 150.064C450.355 149.807 450.5 149.457 450.5 149.092V137.315C450.499 136.95 450.354 136.601 450.096 136.343C449.838 136.085 449.489 135.94 449.124 135.939Z" fill="#6C63FF"/>
<path d="M449.124 156.018H437.342C436.978 156.019 436.629 156.164 436.372 156.422C436.116 156.68 435.971 157.029 435.971 157.393V169.17C435.971 169.351 436.006 169.53 436.075 169.696C436.143 169.863 436.244 170.015 436.371 170.142C436.499 170.27 436.65 170.372 436.816 170.441C436.983 170.51 437.161 170.546 437.342 170.546H449.124C449.489 170.546 449.839 170.401 450.097 170.143C450.355 169.885 450.5 169.535 450.5 169.17V157.393C450.499 157.029 450.354 156.679 450.096 156.422C449.838 156.164 449.489 156.019 449.124 156.018Z" fill="#E6E6E6"/>
<path d="M449.124 176.096H437.342C437.161 176.096 436.983 176.132 436.816 176.201C436.65 176.271 436.499 176.372 436.371 176.5C436.244 176.627 436.143 176.779 436.075 176.946C436.006 177.113 435.971 177.291 435.971 177.472V189.249C435.971 189.429 436.006 189.608 436.075 189.775C436.143 189.942 436.244 190.093 436.371 190.221C436.499 190.349 436.65 190.45 436.816 190.519C436.983 190.589 437.161 190.624 437.342 190.625H449.124C449.489 190.624 449.839 190.479 450.097 190.221C450.355 189.963 450.5 189.614 450.5 189.249V177.472C450.5 177.107 450.355 176.757 450.097 176.499C449.839 176.241 449.489 176.096 449.124 176.096Z" fill="#E6E6E6"/>
<path d="M178.32 349.74H177.992L178.273 349.703L178.32 349.74Z" fill="#2F2E41"/>
<path d="M150.13 130.175C170.094 130.175 186.278 113.991 186.278 94.0273C186.278 74.0636 170.094 57.8798 150.13 57.8798C130.167 57.8798 113.983 74.0636 113.983 94.0273C113.983 113.991 130.167 130.175 150.13 130.175Z" fill="#FFB6B6"/>
<path d="M181.786 67.5245C181.786 67.5245 191.24 49.4508 170.441 47.8077C170.441 47.8077 152.709 31.7226 134.635 44.8671C134.635 44.8671 124.777 44.8671 119.386 56.023C119.386 56.023 111.632 53.0824 109.928 60.9522C109.928 60.9522 104.255 77.383 109.928 92.1706C115.602 106.958 117.486 108.601 117.486 108.601C117.486 108.601 108.163 77.5982 130.856 75.9551C153.548 74.312 178.942 60.1307 180.833 78.2044C182.724 96.2782 185.57 100.731 185.57 100.731C185.57 100.731 203.532 74.9184 181.786 67.5245Z" fill="#2F2E41"/>
<path d="M243.636 183.112L243.52 183.725L242.213 190.624L233.182 238.347L232.647 241.157L231.526 247.098L229.991 255.204L226.589 273.166L225.616 278.314L225.251 280.245L225.124 280.922L224.113 286.25L223.806 287.858L221.341 306.127L219.187 322.047L226.394 329.253L222.097 333.549L219.278 349.702L219.283 349.739H104.193C99.5368 346.723 94.948 343.614 90.4261 340.411L91.3732 333.322C91.3732 333.322 94.6323 320.661 93.2619 319.148C91.897 317.635 88.9023 314.931 88.9023 314.931L92.6747 306.127L93.1985 304.905L92.3202 286.689L92.2991 286.25L92.0081 280.245L91.971 279.472L91.9128 278.314L90.7965 255.204L90.7753 254.823L90.4368 247.818L90.1193 241.157L89.9817 238.347L88.622 210.237L87.7014 191.148L86.8972 174.53L90.1299 173.435L124.705 161.684L139.027 143.066L168.835 143.288L183.427 143.399L207.775 165.98L213.315 168.625L213.357 168.647L217.331 170.546L227.404 175.355L238.055 180.445L243.52 183.053L243.636 183.112Z" fill="#CACACA"/>
<path d="M142.879 295.509C140.695 296.356 138.352 296.713 136.014 296.555C133.677 296.398 131.403 295.73 129.352 294.599C127.3 293.467 125.522 291.9 124.142 290.007C122.762 288.114 121.814 285.941 121.365 283.642L64.9871 275.644L84.5856 253.474L135.118 264.469C139.03 263.97 142.99 264.923 146.246 267.148C149.503 269.373 151.829 272.716 152.786 276.542C153.743 280.368 153.263 284.412 151.437 287.908C149.611 291.404 146.566 294.109 142.879 295.509Z" fill="#FFB6B6"/>
<path d="M117.742 255.204C116.698 253.88 115.22 252.967 113.568 252.627L90.4369 247.818L88.0613 247.326C86.6808 247.038 85.3766 246.461 84.2342 245.634C83.0918 244.807 82.1369 243.748 81.4319 242.527C80.7007 241.245 80.2583 239.818 80.1357 238.347C80.0254 237.01 80.1856 235.664 80.6066 234.39L88.6221 210.237L93.8229 194.566C94.4532 192.676 94.8252 190.71 94.9287 188.72C95.2185 183.214 93.5149 177.787 90.1299 173.435C87.1541 169.609 83.0265 166.842 78.3572 165.543C73.6878 164.243 68.7243 164.48 64.1999 166.218C64.0676 166.266 63.9301 166.319 63.7978 166.372C60.5531 167.667 57.6542 169.7 55.3302 172.308C53.0061 174.917 51.3206 178.031 50.4069 181.403L44.7563 201.957L33.1007 244.331C31.934 248.577 31.6983 253.024 32.4097 257.369C33.1212 261.714 34.7631 265.854 37.2229 269.506C39.6828 273.157 42.9026 276.234 46.662 278.526C50.4214 280.818 54.6315 282.271 59.0044 282.784L92.3203 286.689L107.738 288.498C109.52 288.713 111.318 288.247 112.773 287.195C114.229 286.143 115.234 284.582 115.589 282.821C115.614 282.726 115.633 282.629 115.647 282.53L116.018 280.245L119.155 260.997L119.187 260.801C119.35 259.819 119.306 258.814 119.057 257.849C118.809 256.885 118.361 255.984 117.742 255.204Z" fill="#CACACA"/>
<path d="M178.79 296.126C181.071 296.656 183.442 296.679 185.733 296.194C188.025 295.708 190.182 294.726 192.054 293.317C193.925 291.908 195.464 290.105 196.563 288.037C197.662 285.968 198.295 283.683 198.415 281.344L253.102 265.475L230.573 246.291L182.096 264.301C178.152 264.359 174.367 265.861 171.457 268.523C168.547 271.185 166.714 274.823 166.307 278.745C165.899 282.668 166.945 286.604 169.246 289.808C171.546 293.011 174.942 295.26 178.79 296.126Z" fill="#FFB6B6"/>
<path d="M280.254 229.977L254.244 170.118C252.117 165.203 248.317 161.201 243.52 158.822C242.037 158.092 240.479 157.524 238.875 157.129C238.626 157.065 238.377 157.007 238.129 156.959C234.725 156.217 231.196 156.282 227.822 157.15C224.739 157.942 221.857 159.375 219.364 161.356C216.872 163.337 214.825 165.821 213.357 168.647C213.341 168.67 213.327 168.695 213.315 168.721C211.675 171.892 210.804 175.405 210.77 178.975C210.736 182.545 211.54 186.073 213.119 189.275L213.442 189.921L231.822 226.835C232.45 228.097 232.803 229.478 232.86 230.886C232.916 232.295 232.674 233.699 232.15 235.008C231.625 236.316 230.83 237.499 229.816 238.478C228.802 239.458 227.592 240.212 226.267 240.691L224.976 241.157L201.76 249.542C200.018 250.164 198.585 251.437 197.763 253.094C196.941 254.751 196.794 256.662 197.353 258.426L197.411 258.611L203.918 279.435C203.95 279.531 203.982 279.626 204.019 279.721C204.076 279.901 204.147 280.076 204.231 280.245C204.922 281.796 206.145 283.049 207.678 283.78C209.211 284.51 210.955 284.669 212.595 284.229L225.124 280.922L227.679 280.245L260.032 271.7C264.289 270.575 268.253 268.544 271.652 265.745C275.051 262.946 277.805 259.445 279.725 255.483C281.645 251.52 282.687 247.19 282.778 242.788C282.869 238.386 282.008 234.016 280.254 229.977Z" fill="#CACACA"/>
<path d="M24.2544 280.245C31.7516 289.389 39.8372 298.035 48.4597 306.127H287.587C289.89 306.131 292.099 307.048 293.727 308.678C295.356 310.307 296.272 312.516 296.274 314.82L296.618 375.415C311.329 368.657 325.105 360.026 337.605 349.739C341.076 346.887 344.439 343.912 347.695 340.814C349.827 338.793 351.908 336.722 353.938 334.602C369.156 318.749 381.48 300.351 390.349 280.245H24.2544Z" fill="#3F3D56"/>
<path d="M353.938 334.602C351.912 336.724 349.831 338.794 347.695 340.814H296.792V334.602H353.938Z" fill="white"/>
<path d="M243.16 135.939C242.909 135.475 242.536 135.087 242.083 134.817C241.629 134.547 241.111 134.405 240.583 134.405H67.1308C66.3531 134.407 65.608 134.717 65.0586 135.267C64.5092 135.818 64.2003 136.563 64.1997 137.341V241.157H243.52V137.341C243.522 136.851 243.399 136.368 243.16 135.939Z" fill="#3F3D56"/>
<path d="M64.0427 238.346V251.157C64.0427 251.688 64.1473 252.214 64.3506 252.705C64.5538 253.195 64.8517 253.641 65.2272 254.017C65.6028 254.392 66.0486 254.69 66.5393 254.893C67.0299 255.097 67.5558 255.201 68.0869 255.201H134.273V280.484H133.393C133.324 280.484 133.256 280.497 133.192 280.524C133.129 280.55 133.071 280.589 133.022 280.638C132.973 280.687 132.934 280.744 132.908 280.808C132.882 280.872 132.868 280.94 132.868 281.009V282.768C132.868 282.837 132.882 282.905 132.908 282.969C132.934 283.033 132.973 283.09 133.022 283.139C133.071 283.188 133.129 283.227 133.192 283.253C133.256 283.28 133.324 283.293 133.393 283.293H174.481C174.55 283.293 174.618 283.28 174.682 283.253C174.745 283.227 174.803 283.188 174.852 283.139C174.901 283.09 174.94 283.033 174.966 282.969C174.992 282.905 175.006 282.837 175.006 282.768V281.009C175.006 280.94 174.992 280.872 174.966 280.808C174.94 280.744 174.901 280.687 174.852 280.638C174.803 280.589 174.745 280.55 174.682 280.524C174.618 280.497 174.55 280.484 174.481 280.484H173.601V255.201H239.787C240.318 255.201 240.844 255.097 241.335 254.893C241.826 254.69 242.271 254.392 242.647 254.017C243.022 253.641 243.32 253.195 243.524 252.705C243.727 252.214 243.831 251.688 243.831 251.157V238.346H64.0427Z" fill="#3F3D56"/>
<path d="M151.765 201.577C160.912 201.577 168.328 194.161 168.328 185.013C168.328 175.865 160.912 168.45 151.765 168.45C142.617 168.45 135.201 175.865 135.201 185.013C135.201 194.161 142.617 201.577 151.765 201.577Z" fill="#6C63FF"/>
<path d="M193.966 92.0522H191.321C191.321 72.0531 171.528 58.9479 151.561 58.9373C148.657 58.9288 145.759 59.2106 142.911 59.7785C139.704 60.4187 136.376 61.1859 133.107 62.1858C120.213 66.138 108.256 73.7779 108.256 92.0522C108.253 95.6012 108.705 99.136 109.6 102.57L107.039 103.237C106.089 99.5846 105.609 95.826 105.611 92.0522C105.611 76.0847 112.166 65.1169 123.488 58.5775C129.44 55.1385 136.704 52.9217 145.027 51.8424C148.49 51.3816 151.991 51.2753 155.476 51.5249C178.438 53.1756 193.966 70.7833 193.966 92.0522Z" fill="#6C63FF"/>
<path d="M198.374 93.5177L197.332 85.8143C197.074 83.8689 196.137 82.0772 194.686 80.7564C193.754 79.8953 192.639 79.2573 191.425 78.8906C190.21 78.524 188.928 78.4383 187.676 78.64L186.02 78.8675C185.567 78.9272 185.13 79.0762 184.735 79.306C184.34 79.5358 183.994 79.8417 183.718 80.2061C183.44 80.5692 183.237 80.9839 183.119 81.4262C183.002 81.8684 182.974 82.3294 183.036 82.7827L185.443 100.528C185.542 101.251 185.867 101.925 186.37 102.454C186.873 102.983 187.53 103.34 188.247 103.475C188.46 103.518 188.676 103.539 188.893 103.538C189.048 103.538 189.204 103.528 189.358 103.507L191.21 103.258C192.339 103.108 193.426 102.729 194.403 102.144C195.38 101.559 196.227 100.78 196.892 99.856C197.035 99.655 197.173 99.4486 197.3 99.237C198.291 97.5058 198.67 95.4907 198.374 93.5177Z" fill="#6C63FF"/>
<path d="M184.951 79.1903C184.465 79.4263 184.043 79.7745 183.718 80.2061C183.44 80.5693 183.237 80.9839 183.119 81.4262C183.002 81.8684 182.974 82.3295 183.036 82.7827L185.443 100.528C185.542 101.251 185.867 101.925 186.37 102.454C186.873 102.983 187.53 103.34 188.247 103.475L184.951 79.1903Z" fill="white"/>
<path d="M198.374 93.5177L197.331 85.8143C197.074 83.8689 196.137 82.0772 194.686 80.7563L197.083 98.4116C197.119 98.6951 197.192 98.9725 197.3 99.237C198.291 97.5058 198.67 95.4907 198.374 93.5177Z" fill="#3F3D56"/>
<path d="M190.136 99.068C190.86 98.9698 191.224 97.2472 190.949 95.2203C190.674 93.1935 189.864 91.63 189.141 91.7282C188.417 91.8264 188.053 93.5491 188.328 95.5759C188.603 97.6028 189.412 99.1662 190.136 99.068Z" fill="#3F3D56"/>
<path d="M188.549 89.5447C189.273 89.4465 189.637 87.7238 189.362 85.697C189.087 83.6702 188.277 82.1067 187.553 82.2049C186.829 82.3031 186.465 84.0258 186.74 86.0526C187.015 88.0795 187.825 89.6429 188.549 89.5447Z" fill="#3F3D56"/>
<path d="M198.601 93.2482C199.325 93.15 199.689 91.4273 199.414 89.4005C199.139 87.3737 198.329 85.8102 197.606 85.9084C196.882 86.0066 196.518 87.7293 196.793 89.7561C197.068 91.7829 197.877 93.3464 198.601 93.2482Z" fill="#3F3D56"/>
<path d="M151.561 58.9373C148.657 58.9288 145.759 59.2106 142.911 59.7785C139.704 60.4187 136.377 61.1859 133.107 62.1858C128.001 61.9372 124.245 60.6145 123.488 58.5775C129.44 55.1385 136.705 52.9217 145.027 51.8424C148.49 51.3816 151.991 51.2753 155.476 51.5249C155.845 51.7412 156.164 52.0331 156.412 52.3814C156.66 52.7298 156.832 53.1266 156.915 53.546C157.164 55.3872 155.064 57.3448 151.561 58.9373Z" fill="#3F3D56"/>
<path d="M117.785 110.411L113.711 93.4754C113.566 92.8644 113.243 92.3099 112.784 91.8816C112.324 91.4533 111.749 91.1703 111.129 91.0681C110.954 91.0408 110.777 91.0267 110.6 91.0258C110.35 91.0266 110.102 91.0568 109.859 91.1157L108.282 91.4966C106.252 91.9876 104.5 93.2638 103.41 95.0453C102.32 96.8267 101.981 98.9679 102.468 100.999L104.293 108.596C104.71 110.385 105.703 111.987 107.118 113.157C107.348 113.342 107.588 113.514 107.838 113.67C108.725 114.226 109.714 114.599 110.747 114.766C111.781 114.933 112.837 114.892 113.854 114.644L115.425 114.263C115.84 114.166 116.231 113.984 116.573 113.728C117.081 113.358 117.468 112.845 117.683 112.254C117.899 111.663 117.934 111.022 117.785 110.411Z" fill="#6C63FF"/>
<path d="M109.244 107.26C109.954 107.089 110.142 105.339 109.664 103.35C109.185 101.361 108.221 99.8877 107.511 100.059C106.801 100.229 106.613 101.98 107.092 103.969C107.57 105.957 108.534 107.431 109.244 107.26Z" fill="#3F3D56"/>
<path d="M103.954 108.847C104.664 108.676 104.852 106.926 104.373 104.937C103.894 102.948 102.931 101.475 102.221 101.646C101.51 101.817 101.323 103.567 101.801 105.556C102.28 107.545 103.243 109.018 103.954 108.847Z" fill="#3F3D56"/>
<path d="M118.044 110.348L113.97 93.4119C113.811 92.7508 113.461 92.1512 112.963 91.6882C112.465 91.2252 111.842 90.9193 111.171 90.8088L116.732 113.94C117.281 113.538 117.699 112.982 117.932 112.343C118.166 111.703 118.205 111.009 118.044 110.348Z" fill="white"/>
<path d="M103.389 97.6445C103.276 97.1735 103.065 96.7318 102.77 96.3483C102.197 97.8314 102.092 99.4542 102.468 100.999L104.293 108.596C104.71 110.385 105.703 111.987 107.119 113.157L103.389 97.6445Z" fill="#3F3D56"/>
</g>
<defs>
<clipPath id="clip0_308_1019">
<rect width="450" height="391.956" fill="white" transform="translate(0.5 0.522095)"/>
</clipPath>
</defs>
</svg>
