<svg width="558" height="380" viewBox="0 0 558 380" fill="none" xmlns="http://www.w3.org/2000/svg">
<g clip-path="url(#clip0_150_373)">
<path d="M339.137 213.042C340.089 213.042 341.002 213.42 341.675 214.093C342.348 214.767 342.726 215.681 342.726 216.633V251.378H411.566C412.518 251.378 413.431 251.757 414.104 252.43C414.777 253.104 415.155 254.017 415.155 254.97C415.155 255.922 414.777 256.836 414.104 257.509C413.431 258.183 412.518 258.561 411.566 258.561H342.726V378.718H335.549V216.633C335.549 215.681 335.927 214.767 336.6 214.093C337.273 213.42 338.186 213.042 339.137 213.042Z" fill="#E6E6E6"/>
<path d="M147.564 377.902L134.623 378.26C132.657 378.361 130.712 377.815 129.086 376.706C127.681 375.66 127.036 374.246 127.319 372.826L129.865 360.018C130.345 357.602 133.303 355.775 136.899 355.676L144.046 355.478C147.641 355.379 150.696 357.039 151.308 359.425L154.557 372.073C154.918 373.475 154.352 374.923 153.007 376.045C151.444 377.242 149.532 377.895 147.564 377.902Z" fill="#3F3D56"/>
<path d="M226.277 377.536L213.336 377.894C211.37 377.995 209.425 377.449 207.799 376.34C206.393 375.294 205.749 373.88 206.031 372.459L208.578 359.652C209.058 357.236 212.016 355.409 215.612 355.31L222.759 355.112C226.354 355.013 229.409 356.673 230.021 359.059L233.27 371.707C233.631 373.109 233.065 374.557 231.72 375.679C230.156 376.876 228.245 377.528 226.277 377.536Z" fill="#3F3D56"/>
<path d="M102.628 268.804C102.037 268.549 101.551 268.1 101.249 267.531C100.948 266.961 100.85 266.306 100.971 265.673C101.093 265.041 101.426 264.468 101.917 264.051C102.407 263.634 103.026 263.397 103.669 263.379L250.79 259.314C251.16 259.303 251.53 259.366 251.876 259.499C252.223 259.631 252.54 259.831 252.81 260.086C253.079 260.341 253.296 260.647 253.447 260.986C253.599 261.325 253.682 261.69 253.692 262.062C253.712 262.811 253.434 263.538 252.919 264.083C252.404 264.627 251.695 264.945 250.946 264.967L103.825 269.032C103.414 269.045 103.006 268.967 102.628 268.804Z" fill="#3F3D56"/>
<path d="M156.923 220.062L114.87 221.224L118.79 363.321L160.844 362.159L156.923 220.062Z" fill="#E6E6E6"/>
<path d="M157.99 217.509L149.906 239.548L149.913 339.957L159.764 342.783L157.99 217.509Z" fill="#CCCCCC"/>
<path d="M135.677 182.927C127.81 183.15 121.807 196.777 121.951 202.094L122.217 211.721L150.705 210.934L150.439 201.307C150.29 195.99 143.545 182.715 135.677 182.927Z" fill="#3F3D56"/>
<path d="M115.415 280.07C113.945 280.109 112.52 279.563 111.452 278.551C110.384 277.54 109.76 276.146 109.718 274.675L109.285 259.008C109.245 257.536 109.79 256.109 110.801 255.04C111.812 253.97 113.206 253.347 114.677 253.306C116.147 253.266 117.573 253.811 118.642 254.823C119.71 255.835 120.333 257.23 120.374 258.702L120.806 274.368C120.845 275.839 120.299 277.266 119.289 278.335C118.278 279.404 116.885 280.028 115.415 280.07Z" fill="#3F3D56"/>
<path d="M126.087 221.561L125.888 211.207L128.601 211.14L128.8 221.461L131.259 371.882L128.546 371.957" fill="#3F3D56"/>
<path d="M161.745 245.773L112.978 247.121C108.32 241.436 107.897 217.217 117.618 212.608L121.43 206.13L150.821 204.694L154.255 211.515C159.091 215.633 161.584 239.7 161.745 245.773Z" fill="#E6E6E6"/>
<path d="M143.39 234.158L131.058 234.498C128.678 234.564 126.654 231.474 126.548 227.611C126.441 223.749 128.291 220.552 130.671 220.486L143.003 220.145C145.383 220.079 147.407 223.169 147.513 227.032C147.62 230.895 145.77 234.092 143.39 234.158Z" fill="#6C63FF"/>
<path d="M119.508 304.028L94.087 321.999L89.646 362.519L119.301 352.603L119.508 304.028Z" fill="#E6E6E6"/>
<path d="M238.103 218.322L196.049 219.484L199.97 361.581L242.023 360.418L238.103 218.322Z" fill="#E6E6E6"/>
<path d="M197.056 217.984L205.709 239.805L208.305 340.181L198.531 343.262L197.056 217.984Z" fill="#CCCCCC"/>
<path d="M259.133 178.871C262.178 178.871 264.645 175.559 264.645 171.474C264.645 167.388 262.178 164.077 259.133 164.077C256.089 164.077 253.621 167.388 253.621 171.474C253.621 175.559 256.089 178.871 259.133 178.871Z" fill="#E6E6E6"/>
<path d="M216.036 181.209C208.168 181.433 202.165 195.059 202.31 200.377L202.575 210.003L231.063 209.216L230.798 199.589C230.649 194.272 223.904 180.998 216.036 181.209Z" fill="#3F3D56"/>
<path d="M224.182 224.802L223.983 214.448L226.696 214.38L226.895 224.702L229.354 375.123L226.64 375.199" fill="#3F3D56"/>
<path d="M242.104 244.056L193.336 245.403C192.486 240.26 193.586 216.257 197.976 210.89L201.788 204.412L231.179 202.976L234.614 209.797C243.292 210.505 246.327 234.092 242.104 244.056Z" fill="#E6E6E6"/>
<path d="M223.808 234.602L211.476 234.943C209.096 235.009 207.059 231.434 206.936 226.975C206.813 222.516 208.65 218.834 211.029 218.768L223.362 218.427C225.742 218.362 227.778 221.937 227.902 226.395C228.025 230.854 226.188 234.536 223.808 234.602Z" fill="#6C63FF"/>
<path d="M240.181 293.641L264.756 312.754L267.344 353.435L238.173 342.174L240.181 293.641Z" fill="#E6E6E6"/>
<path d="M233.317 105.216C206.948 105.216 176.642 75.9302 149.829 89.8447C68.6469 131.974 79.8222 61.4773 56.4991 35.259L57.2648 33.722C74.9215 101.126 90.8973 208.532 150.182 88.0568C165.032 57.878 213.772 104.526 242.462 103.15L242.512 104.997C239.482 105.144 236.417 105.217 233.317 105.216Z" fill="#F2F2F2"/>
<path d="M296.609 109.36C275.588 125.294 233.762 120.26 220.782 147.554C181.483 230.191 147.861 167.241 113.452 160.434L113.135 158.746C147.581 161.605 184.529 157.169 219.985 145.915C252.026 135.747 280.612 120.62 302.653 102.188L303.807 103.63C301.48 105.578 299.081 107.488 296.609 109.36Z" fill="#F2F2F2"/>
<path d="M67.9474 105.732C70.9916 105.732 73.4594 102.42 73.4594 98.3349C73.4594 94.2496 70.9916 90.9378 67.9474 90.9378C64.9032 90.9378 62.4354 94.2496 62.4354 98.3349C62.4354 102.42 64.9032 105.732 67.9474 105.732Z" fill="#E6E6E6"/>
<path d="M238.906 45.6538C241.95 45.6538 244.418 42.3419 244.418 38.2566C244.418 34.1713 241.95 30.8595 238.906 30.8595C235.861 30.8595 233.394 34.1713 233.394 38.2566C233.394 42.3419 235.861 45.6538 238.906 45.6538Z" fill="#E6E6E6"/>
<path d="M118.412 135.587C115.892 137.267 113.313 133.268 115.881 131.662C118.401 129.982 120.98 133.981 118.412 135.587Z" fill="#E6E6E6"/>
<path d="M211.721 4.32903C209.201 6.00938 206.622 2.00998 209.19 0.404226C211.71 -1.27604 214.289 2.72337 211.721 4.32903Z" fill="#E6E6E6"/>
<path d="M266.714 82.1513L265.11 81.7993L265.461 80.1942L264.393 79.9597L264.041 81.5649L262.438 81.2135L262.203 82.2832L263.807 82.6352L263.456 84.2396L264.524 84.4741L264.876 82.8689L266.479 83.2209L266.714 82.1513Z" fill="#E6E6E6"/>
<path d="M119.759 28.3671C123.616 28.3671 126.742 25.238 126.742 21.3782C126.742 17.5183 123.616 14.3893 119.759 14.3893C115.902 14.3893 112.775 17.5183 112.775 21.3782C112.775 25.238 115.902 28.3671 119.759 28.3671Z" fill="#FF6584"/>
<path d="M170.838 12.5318C162.97 12.7555 156.968 26.382 157.112 31.6994L157.377 41.326L185.866 40.5388L185.6 30.9121C185.451 25.5948 178.706 12.3206 170.838 12.5318Z" fill="#3F3D56"/>
<path d="M187.801 377.063L174.86 377.421C172.895 377.522 170.95 376.976 169.323 375.867C167.918 374.821 167.273 373.407 167.556 371.986L170.103 359.179C170.582 356.763 173.541 354.936 177.137 354.837L184.283 354.639C187.879 354.54 190.934 356.2 191.546 358.586L194.795 371.234C195.155 372.636 194.59 374.084 193.244 375.206C191.681 376.403 189.769 377.055 187.801 377.063Z" fill="#3F3D56"/>
<path d="M193.572 73.8154L151.518 74.9776L159.443 362.21L201.497 361.047L193.572 73.8154Z" fill="#E6E6E6"/>
<path d="M176.745 212.853L176.546 202.499L179.259 202.432L179.458 212.752L181.917 363.174L179.203 363.249" fill="#3F3D56"/>
<path d="M201.851 100.103L144.87 101.678C143.877 95.6679 145.162 67.6227 150.292 61.3522L151.697 53.8672L191.042 52.7799L193.1 60.0749C198.75 64.8864 201.663 93.0077 201.851 100.103Z" fill="#E6E6E6"/>
<path d="M192.285 53.6632L151.684 54.7852C150.186 54.8266 148.948 54.0391 148.92 53.0263C148.917 52.8805 148.938 52.735 148.984 52.5963L155.29 33.1524C155.56 32.3198 156.635 31.7083 157.89 31.6736L184.815 30.9296C186.07 30.8949 187.177 31.4461 187.493 32.2625L194.862 51.3285C195.239 52.3037 194.368 53.3185 192.917 53.5951C192.709 53.6346 192.498 53.6574 192.285 53.6632Z" fill="#E6E6E6"/>
<path d="M155.689 211.532C155.323 211.375 154.977 211.175 154.658 210.935C154.201 210.614 153.824 210.193 153.555 209.704C153.286 209.215 153.132 208.67 153.106 208.113L151.63 154.645C151.57 152.431 153.735 150.569 156.457 150.494L192.804 149.489C195.527 149.414 197.791 151.154 197.853 153.367L199.328 206.836C199.332 207.394 199.209 207.946 198.967 208.449C198.726 208.952 198.372 209.393 197.934 209.739C196.963 210.53 195.753 210.97 194.501 210.986L158.154 211.99C157.309 212.019 156.468 211.862 155.689 211.532Z" fill="#3F3D56"/>
<path d="M178.953 50.2221L166.621 50.5629C164.241 50.6287 162.228 47.9378 162.135 44.5654C162.042 41.193 163.903 38.3951 166.283 38.3293L178.616 37.9885C180.995 37.9227 183.008 40.6136 183.101 43.986C183.194 47.3585 181.333 50.1563 178.953 50.2221Z" fill="#6C63FF"/>
<path d="M470.467 367.345H456.111V262.941C468.119 262.08 477.144 258.4 477.144 253.99C477.144 248.941 465.312 244.848 450.717 244.848C436.122 244.848 424.29 248.941 424.29 253.99C424.29 258.442 433.491 262.149 445.671 262.964V367.345H431.316C429.932 367.345 428.604 367.896 427.625 368.876C426.646 369.855 426.096 371.184 426.096 372.57C426.096 373.955 426.646 375.284 427.625 376.264C428.604 377.243 429.932 377.794 431.316 377.794H470.467C471.851 377.794 473.179 377.243 474.158 376.264C475.137 375.284 475.687 373.955 475.687 372.57C475.687 371.184 475.137 369.855 474.158 368.876C473.179 367.896 471.851 367.345 470.467 367.345Z" fill="#E6E6E6"/>
<path d="M441.651 314.342L436.935 319.485L414.871 303.73L421.83 296.14L441.651 314.342Z" fill="#A0616A"/>
<path d="M429.593 327.916C429.64 329.066 429.914 330.195 430.399 331.238C430.885 332.282 431.573 333.218 432.422 333.994L432.63 334.187L438.814 327.442L447.832 317.605L441.175 311.488L439.973 312.803L439.847 312.938L433.856 315.774L432.587 316.378L432.369 316.479L431.891 321.615V321.62C431.11 322.464 430.505 323.456 430.11 324.537C429.716 325.617 429.54 326.766 429.593 327.916Z" fill="#2F2E41"/>
<path d="M466.081 365.645L459.408 367.674L448.413 342.88L458.262 339.885L466.081 365.645Z" fill="#A0616A"/>
<path d="M448.146 377.868L448.228 378.144L469.745 371.602L467.119 362.949L465.42 363.466L465.241 363.519L457.241 362.784L457.005 362.765L453.978 366.944C451.757 367.619 449.895 369.149 448.802 371.198C447.708 373.246 447.472 375.646 448.146 377.868Z" fill="#2F2E41"/>
<path d="M411.054 235.826C411.054 235.826 368.449 276.994 395.384 289.737H403.708C405.518 283.85 408.299 278.308 411.937 273.341C412.724 272.311 415.671 272.52 416.489 271.516C421.485 265.386 426.902 260.122 430.643 260.331L429.748 288.775L428.299 298.922C427.539 304.167 449.002 349.963 449.002 349.963L462.492 344.657C462.492 344.657 448.437 306.937 448.272 301.499L459.536 241.707L411.054 235.826Z" fill="#2F2E41"/>
<path d="M407.502 237.856C407.719 238.166 408.003 238.424 408.332 238.61C408.875 238.917 409.463 239.136 410.075 239.257C419.667 241.436 451.004 245.954 459.139 243.799C460.138 243.538 460.79 243.171 461.002 242.688C461.683 241.161 461.596 234.711 461.195 226.923C461.123 225.463 459.515 223.884 459.419 222.357C459.351 221.212 460.795 220.134 460.717 218.97C460.186 211.095 459.501 203.069 459.042 197.996C458.753 194.735 458.555 192.696 458.555 192.696L463.503 161.47L463.271 161.088L463.011 160.958L447.055 153.054L446.186 150.831C445.934 150.191 445.497 149.642 444.929 149.253C444.362 148.865 443.692 148.655 443.005 148.652L432.495 148.609C431.949 148.606 431.411 148.733 430.925 148.98C430.439 149.227 430.019 149.587 429.699 150.029L426.851 153.976L408.023 166.055L408.095 166.277L416.93 193.184L416.974 195.281V195.286L417.302 212.148L416.389 214.433L417.418 218.182C417.418 218.182 416.945 222.564 414.41 225.821C412.112 228.778 409.187 231.86 407.864 234.363V234.368C407.13 235.75 406.884 236.948 407.502 237.856Z" fill="#6C63FF"/>
<path d="M393.338 287.291L395.615 290.171C395.615 290.171 416.559 304.835 417.279 306.206L420.589 309.341L428.597 300.773L424.432 295.548C421.099 291.367 416.793 288.068 411.89 285.938L405.507 280.271L393.338 287.291Z" fill="#2F2E41"/>
<path d="M468.781 247.582L464.967 210.636L463.96 195.43L474.636 193.498C474.636 193.498 474.213 204.371 475.611 210.505C476.991 216.559 475.794 246.771 475.709 247.579C476.493 248.281 477.046 249.204 477.294 250.227C477.542 251.25 477.474 252.324 477.099 253.307C476.724 254.29 476.06 255.137 475.194 255.734C474.328 256.331 473.301 256.651 472.249 256.652C471.198 256.652 470.17 256.333 469.304 255.737C468.437 255.14 467.772 254.295 467.396 253.312C467.02 252.329 466.951 251.255 467.199 250.232C467.446 249.209 467.998 248.285 468.781 247.582Z" fill="#A0616A"/>
<path d="M456.068 191.628L459.042 197.996L460.08 200.214L462.875 214.863L464.271 216.346L465.473 221.134L466.038 221.018L476.224 218.907L479.193 218.293C479.862 217.178 480.126 215.865 479.939 214.577C479.753 213.289 479.128 212.105 478.17 211.225C477.967 211.041 477.798 210.863 477.803 210.694C477.972 200.504 477.349 181.898 471.725 174.24C469.938 171.81 468.867 169.389 467.307 167.698C467.302 167.693 467.302 167.688 467.298 167.688L463.503 161.47L463.271 161.088L463.011 160.958L456.068 191.628Z" fill="#6C63FF"/>
<path d="M438.572 145.991C446.295 145.991 452.555 139.726 452.555 131.997C452.555 124.268 446.295 118.002 438.572 118.002C430.849 118.002 424.588 124.268 424.588 131.997C424.588 139.726 430.849 145.991 438.572 145.991Z" fill="#A0616A"/>
<path d="M455.176 128.986C455.586 126.634 455.905 123.585 454.732 120.875C453.74 118.594 451.26 116.455 448.504 116.744C448.634 116.229 448.62 115.688 448.462 115.181C448.304 114.674 448.008 114.22 447.608 113.871C446.71 113.166 445.664 112.674 444.549 112.432C441.958 111.669 439.274 110.879 436.502 110.865C433.392 110.848 430.636 111.914 428.946 113.794L428.905 113.855L428.398 115.066C428.33 115.228 428.228 115.374 428.099 115.493C427.969 115.612 427.816 115.702 427.649 115.756C427.481 115.811 427.303 115.829 427.128 115.807C426.953 115.786 426.784 115.726 426.635 115.632C426.471 115.531 426.284 115.474 426.091 115.468C425.899 115.462 425.708 115.506 425.538 115.596C425.368 115.686 425.225 115.819 425.122 115.982C425.019 116.145 424.96 116.331 424.951 116.524L424.924 117.04L424.198 116.751C424.016 116.677 423.818 116.653 423.624 116.682C423.43 116.711 423.247 116.791 423.094 116.914C422.941 117.037 422.824 117.199 422.754 117.383C422.685 117.567 422.665 117.766 422.698 117.959L422.795 118.574C422.639 118.545 422.479 118.549 422.324 118.584C422.17 118.618 422.023 118.684 421.895 118.777C421.71 118.912 421.574 119.103 421.505 119.321C421.435 119.54 421.437 119.774 421.51 119.991C422.073 121.599 423.035 123.037 424.305 124.17C424.876 124.686 425.514 125.121 426.203 125.462C426.346 125.534 426.495 125.603 426.65 125.667C432.223 128.058 438.185 129.41 444.244 129.656C443.671 130.749 443.301 131.938 443.151 133.164C443.069 133.859 443.178 134.564 443.467 135.202C443.756 135.84 444.214 136.387 444.792 136.783C445.042 136.926 445.305 137.046 445.577 137.143C445.837 137.239 446.089 137.355 446.331 137.492C446.684 137.706 446.976 138.01 447.174 138.373C447.373 138.736 447.473 139.145 447.463 139.558C447.453 139.972 447.334 140.376 447.118 140.729C446.903 141.082 446.598 141.371 446.234 141.569C446.234 141.569 447.275 142.84 447.441 142.818C448.104 142.668 448.703 142.313 449.154 141.804C452.182 138.861 454.209 134.551 455.176 128.986Z" fill="#2F2E41"/>
<path d="M516.397 345.315L517.004 331.639C523.34 328.249 530.407 326.459 537.591 326.423C527.704 334.513 528.939 350.108 522.236 360.987C520.119 364.364 517.27 367.221 513.9 369.347C510.53 371.472 506.725 372.811 502.768 373.265L494.494 378.335C493.358 372.001 493.609 365.495 495.227 359.267C496.846 353.039 499.795 347.236 503.87 342.258C506.184 339.488 508.838 337.021 511.768 334.914C513.749 340.144 516.397 345.315 516.397 345.315Z" fill="#F2F2F2"/>
<path d="M558 378.986C558 379.119 557.974 379.251 557.924 379.374C557.873 379.498 557.798 379.61 557.704 379.704C557.61 379.798 557.498 379.873 557.375 379.924C557.252 379.974 557.12 380 556.986 380H1.0135C0.744701 380 0.486912 379.893 0.296844 379.703C0.106777 379.513 0 379.255 0 378.986C0 378.717 0.106777 378.459 0.296844 378.268C0.486912 378.078 0.744701 377.971 1.0135 377.971H556.986C557.12 377.971 557.252 377.997 557.375 378.048C557.498 378.099 557.61 378.173 557.704 378.268C557.798 378.362 557.873 378.474 557.924 378.597C557.974 378.72 558 378.852 558 378.986Z" fill="#CCCCCC"/>
<path d="M239.144 276.599C237.674 276.638 236.249 276.092 235.181 275.081C234.113 274.069 233.489 272.675 233.447 271.204L233.015 255.537C232.976 254.067 233.522 252.641 234.533 251.574C235.544 250.506 236.937 249.883 238.406 249.843C239.875 249.802 241.301 250.347 242.369 251.357C243.437 252.367 244.061 253.761 244.103 255.231L244.535 270.898C244.574 272.369 244.029 273.795 243.018 274.864C242.007 275.933 240.614 276.557 239.144 276.599Z" fill="#3F3D56"/>
<path d="M483.743 333.858C475.317 333.858 466.083 333.539 456.039 332.902C404.09 329.601 336.801 318.122 266.566 300.582C196.331 283.043 131.541 261.535 84.1326 240.025C61.0385 229.546 43.314 219.626 31.4519 210.542C18.8929 200.925 13.3995 192.542 15.1234 185.627C18.4826 172.156 48.226 169.209 72.5862 169.109L72.5945 171.068C39.1415 171.205 19.4059 176.545 17.023 186.102C13.9876 198.274 38.7429 217.278 84.941 238.24C132.245 259.704 196.916 281.17 267.04 298.682C337.163 316.194 404.329 327.652 456.164 330.947C506.785 334.165 537.56 329.029 540.595 316.856C543.115 306.749 526.502 291.861 493.817 274.933L494.717 273.193C518.466 285.493 546.034 303.135 542.495 317.33C540.77 324.245 531.986 329.062 516.384 331.646C507.491 333.12 496.567 333.858 483.743 333.858Z" fill="#CCCCCC"/>
<path d="M36.5789 321.024C29.8932 321.024 25.5468 319.362 23.623 316.056C19.8293 309.539 26.183 298.103 42.5073 282.066L43.8786 283.464C28.715 298.361 22.122 309.585 25.3142 315.07C27.3342 318.54 33.3457 319.783 42.7026 318.665C51.9913 317.555 64.3011 314.247 79.2901 308.834C110.148 297.688 148.863 278.888 188.302 255.896C227.74 232.905 263.178 208.476 288.089 187.11C292.873 183.005 297.215 179.056 300.995 175.374C305.956 170.658 310.533 165.553 314.682 160.108C320.269 152.515 322.155 146.668 320.135 143.198C316.762 137.403 302.591 137.948 280.23 144.735L279.662 142.86C303.653 135.58 317.839 135.361 321.827 142.212C324.305 146.469 322.431 152.881 316.258 161.27C312.046 166.802 307.398 171.987 302.36 176.778C298.552 180.489 294.178 184.466 289.362 188.597C264.365 210.038 228.824 234.54 189.287 257.589C149.749 280.639 110.92 299.492 79.9548 310.676C64.8262 316.14 52.3708 319.483 42.9346 320.61C40.826 320.873 38.7038 321.011 36.5789 321.024Z" fill="#CCCCCC"/>
<path d="M393.857 240.589C389.019 240.493 363.033 239.747 358.771 239.93C358.53 239.086 350.452 249.446 350.255 249.511C350.125 249.649 350.029 249.817 349.977 250C349.925 250.183 349.918 250.377 349.957 250.563C349.996 250.75 350.079 250.924 350.2 251.071C350.32 251.219 350.475 251.335 350.65 251.409C351.125 251.698 393.019 250.922 393.526 251.024C393.746 251.02 393.96 250.955 394.144 250.835C394.328 250.715 394.474 250.545 394.566 250.346L394.846 249.718C394.875 248.644 395.227 243.156 394.911 242.218C394.989 242.042 395.021 241.849 395.006 241.657C394.99 241.466 394.928 241.281 394.823 241.119C394.719 240.958 394.576 240.825 394.407 240.732C394.238 240.64 394.05 240.591 393.857 240.589Z" fill="#E6E6E6"/>
<path opacity="0.17" d="M394.846 249.717C394.6 250.308 394.286 251.051 393.526 251.024L351.092 251.5C350.892 251.498 350.695 251.444 350.521 251.344C350.347 251.244 350.202 251.1 350.099 250.928C349.997 250.755 349.94 250.559 349.935 250.358C349.93 250.157 349.977 249.958 350.071 249.781L394.846 249.717Z" fill="black"/>
<path d="M358.97 239.803C358.513 239.012 347.168 182.834 346.221 182.364L338.476 172.882L337.784 172.361C336.821 171.832 334.512 172.189 334.72 173.661C336.539 182.392 348.243 232.119 348.5 239.871L349.909 249.748C349.934 249.916 349.994 250.077 350.085 250.22C350.176 250.364 350.296 250.486 350.437 250.581C350.579 250.675 350.738 250.738 350.906 250.767C351.073 250.795 351.245 250.789 351.409 250.747C351.813 250.703 352.199 250.555 352.528 250.317C352.857 250.079 353.119 249.759 353.287 249.389C353.392 249.041 359.5 240.005 358.97 239.803Z" fill="#E6E6E6"/>
<path opacity="0.17" d="M338.474 172.882L353.288 249.391C352.793 250.646 350.475 251.525 349.935 249.879C349.925 249.877 334.737 173.708 334.721 173.662C334.56 171.829 337.586 171.771 338.474 172.882Z" fill="black"/>
<path d="M338.921 176.011L346.444 186.506L354.889 226.644L350.963 230.071L338.921 176.011Z" fill="#6C63FF"/>
<path d="M389.001 246.001L391.082 246.086C391.115 245.476 391.215 244.872 391.382 244.284C391.696 242.795 391.976 241.025 390.678 241.032C389.797 240.947 389.497 242.064 389.34 243.278C389.3 244.194 389.186 245.104 389.001 246.001Z" fill="#2F2E41"/>
<path d="M377.06 243.2L378.463 243.252L379.141 243.278C379.128 242.534 379.474 240.999 378.632 240.621C378.498 240.563 378.354 240.534 378.208 240.536C377.419 240.49 377.184 241.091 377.112 241.783C377.066 242.201 377.086 242.645 377.073 242.991C377.073 243.063 377.066 243.135 377.06 243.2Z" fill="#2F2E41"/>
<path d="M372.903 243.03L374.313 243.089L374.985 243.115C374.972 242.26 375.422 240.392 374.052 240.366C372.786 240.294 372.949 241.907 372.916 242.821C372.916 242.893 372.91 242.965 372.903 243.03Z" fill="#2F2E41"/>
<path d="M368.747 242.867L370.15 242.919L370.828 242.945C370.815 242.096 371.266 240.229 369.895 240.203C368.629 240.124 368.792 241.737 368.76 242.658C368.76 242.73 368.753 242.802 368.747 242.867Z" fill="#2F2E41"/>
<path d="M364.59 242.697L366 242.756L366.672 242.782C366.659 241.927 367.109 240.065 365.739 240.033C364.473 239.961 364.636 241.574 364.603 242.488C364.603 242.56 364.597 242.632 364.59 242.697Z" fill="#2F2E41"/>
<path d="M360.434 242.534L361.837 242.586L362.515 242.612C362.502 241.829 362.881 240.19 361.876 239.909H361.869C361.776 239.881 361.679 239.868 361.582 239.87C361.464 239.859 361.344 239.87 361.23 239.902H361.223C360.349 240.131 360.473 241.502 360.447 242.325C360.447 242.397 360.44 242.469 360.434 242.534Z" fill="#2F2E41"/>
<path d="M384.805 242.09L386.887 242.175C386.887 242.096 386.887 242.011 386.893 241.913C386.945 241.417 386.953 240.916 386.919 240.418C386.848 239.87 386.613 239.439 385.954 239.425C385.281 239.386 385.014 239.817 384.91 240.372C384.885 240.467 384.868 240.563 384.857 240.66V240.666C384.805 241.176 384.838 241.724 384.805 242.09Z" fill="#2F2E41"/>
<path d="M380.649 241.92L382.73 242.005C382.774 241.444 382.787 240.882 382.769 240.32C382.711 239.745 382.482 239.275 381.797 239.262C381.105 239.217 380.838 239.687 380.734 240.268C380.636 240.83 380.688 241.502 380.649 241.92Z" fill="#2F2E41"/>
<path d="M376.492 241.757L377.112 241.783L378.574 241.842C378.567 241.528 378.626 241.071 378.632 240.621C378.638 240.485 378.634 240.35 378.619 240.216C378.567 239.608 378.352 239.106 377.641 239.092C376.916 239.053 376.662 239.556 376.57 240.17C376.479 240.719 376.531 241.352 376.492 241.757Z" fill="#2F2E41"/>
<path d="M384.844 245.838L386.926 245.917C386.919 245.068 387.363 243.2 385.993 243.174C384.622 243.089 384.923 244.983 384.844 245.838Z" fill="#2F2E41"/>
<path d="M380.688 245.668L382.769 245.753C382.763 244.898 383.206 243.03 381.836 243.004C380.466 242.926 380.766 244.819 380.688 245.668Z" fill="#2F2E41"/>
<path d="M376.531 245.505L378.613 245.583C378.606 244.976 378.835 243.853 378.463 243.252C378.382 243.119 378.266 243.011 378.128 242.938C377.99 242.866 377.835 242.832 377.68 242.841C377.466 242.818 377.251 242.871 377.073 242.991C376.407 243.429 376.596 244.813 376.531 245.505Z" fill="#2F2E41"/>
<path d="M372.375 245.335L374.456 245.42C374.45 244.813 374.672 243.696 374.313 243.089C374.232 242.954 374.115 242.844 373.976 242.77C373.837 242.696 373.68 242.662 373.523 242.671C373.309 242.647 373.094 242.701 372.916 242.821C372.251 243.272 372.44 244.65 372.375 245.335Z" fill="#2F2E41"/>
<path d="M368.218 245.172L370.3 245.25C370.293 244.643 370.522 243.52 370.15 242.919C370.069 242.786 369.953 242.678 369.815 242.605C369.677 242.533 369.522 242.499 369.367 242.508C369.153 242.485 368.938 242.538 368.76 242.658C368.094 243.095 368.284 244.48 368.218 245.172Z" fill="#2F2E41"/>
<path d="M364.062 245.002L366.143 245.087C366.137 244.48 366.359 243.363 366 242.756C365.919 242.62 365.803 242.51 365.664 242.436C365.524 242.362 365.367 242.328 365.21 242.338C364.996 242.314 364.781 242.368 364.603 242.488C363.938 242.939 364.127 244.317 364.062 245.002Z" fill="#2F2E41"/>
<path d="M359.905 244.839L361.987 244.917C361.98 244.31 362.202 243.193 361.837 242.586C361.756 242.453 361.641 242.344 361.503 242.271C361.365 242.199 361.209 242.165 361.054 242.175C360.84 242.152 360.625 242.205 360.447 242.325C359.781 242.769 359.971 244.147 359.905 244.839Z" fill="#2F2E41"/>
<path d="M383.413 238.802L399.277 205.223L405.276 191.216L395.848 185.844C395.848 185.844 392.637 196.24 389.281 201.561C385.97 206.811 377.067 235.705 376.88 236.495C375.907 236.896 375.079 237.583 374.506 238.466C373.932 239.348 373.639 240.383 373.666 241.436C373.693 242.488 374.039 243.507 374.658 244.358C375.276 245.21 376.138 245.853 377.13 246.203C378.122 246.553 379.197 246.594 380.212 246.32C381.227 246.045 382.136 245.469 382.817 244.667C383.498 243.865 383.919 242.874 384.026 241.827C384.132 240.78 383.918 239.725 383.413 238.802Z" fill="#A0616A"/>
<path d="M383.316 207.713L395.314 214.957L398.035 210.842L399.848 209.906L407.348 197.017L413.979 190.256L422.74 162.229L411.341 163.94L411.326 163.945C409.295 165.023 407.479 166.95 404.988 168.649C397.141 174 390.375 191.342 387.152 201.012C387.099 201.17 386.881 201.281 386.629 201.389C385.434 201.9 384.452 202.809 383.848 203.961C383.244 205.113 383.057 206.439 383.316 207.713Z" fill="#6C63FF"/>
</g>
<defs>
<clipPath id="clip0_150_373">
<rect width="558" height="380" fill="white"/>
</clipPath>
</defs>
</svg>
