<svg width="36" height="36" viewBox="0 0 36 36" fill="none" xmlns="http://www.w3.org/2000/svg">
<path d="M17.5849 0H17.5051C7.83729 0 0 7.83958 0 17.5102V17.5901C0 27.2607 7.83729 35.1003 17.5051 35.1003H17.5849C27.2527 35.1003 35.09 27.2607 35.09 17.5901V17.5102C35.09 7.83958 27.2527 0 17.5849 0Z" fill="#007EBB"/>
<path d="M8.36839 11.668C7.90615 11.2388 7.67627 10.7075 7.67627 10.0754C7.67627 9.44336 7.90738 8.88875 8.36839 8.45834C8.83064 8.02917 9.42566 7.81396 10.1547 7.81396C10.8837 7.81396 11.4554 8.02917 11.9164 8.45834C12.3786 8.88752 12.6085 9.42737 12.6085 10.0754C12.6085 10.7235 12.3774 11.2388 11.9164 11.668C11.4541 12.0971 10.8677 12.3123 10.1547 12.3123C9.44164 12.3123 8.83064 12.0971 8.36839 11.668ZM12.22 14.1299V27.288H8.06351V14.1299H12.22Z" fill="#FEFFFC"/>
<path d="M26.0564 15.4298C26.9624 16.4136 27.4148 17.7638 27.4148 19.483V27.0557H23.4673V20.0167C23.4673 19.1497 23.2424 18.4758 22.7936 17.9962C22.3449 17.5166 21.7401 17.2756 20.9828 17.2756C20.2255 17.2756 19.6206 17.5154 19.1719 17.9962C18.7232 18.4758 18.4982 19.1497 18.4982 20.0167V27.0557H14.5273V14.0931H18.4982V15.8122C18.9002 15.2392 19.4424 14.7866 20.1235 14.4534C20.8045 14.1201 21.5704 13.9541 22.4224 13.9541C23.9394 13.9541 25.1516 14.446 26.0564 15.4298Z" fill="#FEFFFC"/>
</svg>
