<svg width="37" height="36" viewBox="0 0 37 36" fill="none" xmlns="http://www.w3.org/2000/svg">
<path d="M18.5099 35.09H18.4327C8.77978 35.09 0.9263 27.2365 0.9263 17.5836V17.5064C0.9263 7.85347 8.77978 0 18.4327 0H18.5099C28.1628 0 36.0163 7.85347 36.0163 17.5064V17.5836C36.0163 27.2365 28.1628 35.09 18.5099 35.09ZM18.4327 1.18776C9.43424 1.18776 2.11406 8.50793 2.11406 17.5064V17.5836C2.11406 26.5821 9.43424 33.9022 18.4327 33.9022H18.5099C27.5084 33.9022 34.8285 26.5821 34.8285 17.5836V17.5064C34.8285 8.50793 27.5084 1.18776 18.5099 1.18776H18.4327Z" fill="#007EBB"/>
<path d="M9.60525 11.8621C9.15865 11.4476 8.93655 10.9344 8.93655 10.3239C8.93655 9.71343 9.15984 9.17775 9.60525 8.76203C10.0518 8.34751 10.6267 8.13965 11.3311 8.13965C12.0354 8.13965 12.5877 8.34751 13.0331 8.76203C13.4797 9.17656 13.7018 9.69799 13.7018 10.3239C13.7018 10.9499 13.4785 11.4476 13.0331 11.8621C12.5865 12.2766 12.02 12.4845 11.3311 12.4845C10.6422 12.4845 10.0518 12.2766 9.60525 11.8621ZM13.3265 14.24V26.949H9.31069V14.24H13.3265Z" fill="#007EBB"/>
<path d="M26.6947 15.4956C27.5701 16.4458 28.0072 17.75 28.0072 19.4105V26.7247H24.1933V19.926C24.1933 19.0886 23.976 18.4377 23.5424 17.9745C23.1089 17.5112 22.5245 17.2785 21.7929 17.2785C21.0612 17.2785 20.4768 17.5101 20.0433 17.9745C19.6097 18.4377 19.3924 19.0886 19.3924 19.926V26.7247H15.5559V14.2045H19.3924V15.865C19.7808 15.3115 20.3046 14.8744 20.9626 14.5525C21.6206 14.2307 22.3606 14.0703 23.1837 14.0703C24.6494 14.0703 25.8205 14.5454 26.6947 15.4956Z" fill="#007EBB"/>
</svg>
