<svg xmlns="http://www.w3.org/2000/svg" xmlns:xlink="http://www.w3.org/1999/xlink" width="1080" zoomAndPan="magnify" viewBox="0 0 810 809.999993" height="1080" preserveAspectRatio="xMidYMid meet" version="1.0"><defs><g/><clipPath id="2457878e28"><path d="M 59 314 L 149 314 L 149 406 L 59 406 Z M 59 314 " clip-rule="nonzero"/></clipPath><clipPath id="f175781229"><path d="M 50.296875 383.628906 L 125.242188 305.269531 L 157.703125 336.316406 L 82.753906 414.675781 Z M 50.296875 383.628906 " clip-rule="nonzero"/></clipPath><clipPath id="6879c512d0"><path d="M 65.820312 367.398438 L 109.609375 321.617188 C 113.726562 317.3125 119.382812 314.820312 125.339844 314.6875 C 131.292969 314.554688 137.058594 316.792969 141.363281 320.910156 C 145.667969 325.027344 148.160156 330.683594 148.292969 336.640625 C 148.425781 342.59375 146.1875 348.359375 142.070312 352.664062 L 98.277344 398.445312 C 94.160156 402.75 88.503906 405.242188 82.546875 405.375 C 76.59375 405.507812 70.832031 403.269531 66.527344 399.152344 C 62.222656 395.035156 59.730469 389.378906 59.597656 383.421875 C 59.464844 377.46875 61.703125 371.703125 65.820312 367.398438 Z M 65.820312 367.398438 " clip-rule="nonzero"/></clipPath><clipPath id="119d703f1d"><path d="M 60 405 L 149 405 L 149 496 L 60 496 Z M 60 405 " clip-rule="nonzero"/></clipPath><clipPath id="5426d54893"><path d="M 50.882812 474.050781 L 125.832031 395.691406 L 158.289062 426.738281 L 83.34375 505.097656 Z M 50.882812 474.050781 " clip-rule="nonzero"/></clipPath><clipPath id="6ab12598e7"><path d="M 66.40625 457.820312 L 110.195312 412.039062 C 114.3125 407.734375 119.972656 405.242188 125.925781 405.109375 C 131.882812 404.976562 137.644531 407.214844 141.949219 411.332031 C 146.253906 415.449219 148.746094 421.105469 148.878906 427.0625 C 149.011719 433.015625 146.773438 438.78125 142.65625 443.085938 L 98.867188 488.867188 C 94.75 493.171875 89.089844 495.664062 83.136719 495.796875 C 77.179688 495.929688 71.417969 493.691406 67.113281 489.574219 C 62.808594 485.457031 60.316406 479.800781 60.183594 473.84375 C 60.050781 467.890625 62.289062 462.125 66.40625 457.820312 Z M 66.40625 457.820312 " clip-rule="nonzero"/></clipPath><clipPath id="887f513161"><path d="M 149 315 L 238 315 L 238 406 L 149 406 Z M 149 315 " clip-rule="nonzero"/></clipPath><clipPath id="4df38d2290"><path d="M 139.757812 384 L 214.703125 305.640625 L 247.164062 336.6875 L 172.214844 415.046875 Z M 139.757812 384 " clip-rule="nonzero"/></clipPath><clipPath id="347e909631"><path d="M 155.28125 367.773438 L 199.070312 321.988281 C 203.1875 317.683594 208.84375 315.191406 214.800781 315.058594 C 220.753906 314.925781 226.519531 317.164062 230.824219 321.28125 C 235.128906 325.398438 237.621094 331.058594 237.753906 337.011719 C 237.886719 342.964844 235.648438 348.730469 231.53125 353.035156 L 187.738281 398.816406 C 183.621094 403.121094 177.964844 405.613281 172.007812 405.746094 C 166.054688 405.878906 160.292969 403.640625 155.988281 399.523438 C 151.683594 395.40625 149.191406 389.75 149.058594 383.792969 C 148.925781 377.839844 151.164062 372.078125 155.28125 367.773438 Z M 155.28125 367.773438 " clip-rule="nonzero"/></clipPath><clipPath id="d01b5e15c5"><path d="M 149 403 L 239 403 L 239 495 L 149 495 Z M 149 403 " clip-rule="nonzero"/></clipPath><clipPath id="387f80bb25"><path d="M 140.324219 472.644531 L 215.273438 394.285156 L 247.730469 425.332031 L 172.785156 503.691406 Z M 140.324219 472.644531 " clip-rule="nonzero"/></clipPath><clipPath id="3d70a0ae1f"><path d="M 155.847656 456.417969 L 199.636719 410.632812 C 203.753906 406.328125 209.414062 403.835938 215.367188 403.703125 C 221.324219 403.570312 227.085938 405.808594 231.390625 409.925781 C 235.695312 414.042969 238.1875 419.703125 238.320312 425.65625 C 238.453125 431.609375 236.214844 437.375 232.097656 441.679688 L 188.308594 487.460938 C 184.191406 491.765625 178.53125 494.257812 172.578125 494.390625 C 166.621094 494.523438 160.859375 492.285156 156.554688 488.167969 C 152.25 484.050781 149.757812 478.394531 149.625 472.4375 C 149.492188 466.484375 151.730469 460.71875 155.847656 456.417969 Z M 155.847656 456.417969 " clip-rule="nonzero"/></clipPath></defs><g clip-path="url(#2457878e28)"><g clip-path="url(#f175781229)"><g clip-path="url(#6879c512d0)"><path fill="#000000" d="M 50.296875 383.628906 L 125.121094 305.398438 L 157.582031 336.445312 L 82.753906 414.675781 Z M 50.296875 383.628906 " fill-opacity="1" fill-rule="nonzero"/></g></g></g><g clip-path="url(#119d703f1d)"><g clip-path="url(#5426d54893)"><g clip-path="url(#6ab12598e7)"><path fill="#000000" d="M 50.882812 474.050781 L 125.710938 395.820312 L 158.167969 426.867188 L 83.34375 505.097656 Z M 50.882812 474.050781 " fill-opacity="1" fill-rule="nonzero"/></g></g></g><g clip-path="url(#887f513161)"><g clip-path="url(#4df38d2290)"><g clip-path="url(#347e909631)"><path fill="#000000" d="M 139.757812 384 L 214.582031 305.769531 L 247.042969 336.816406 L 172.214844 415.046875 Z M 139.757812 384 " fill-opacity="1" fill-rule="nonzero"/></g></g></g><g clip-path="url(#d01b5e15c5)"><g clip-path="url(#387f80bb25)"><g clip-path="url(#3d70a0ae1f)"><path fill="#000000" d="M 140.324219 472.644531 L 215.152344 394.414062 L 247.609375 425.460938 L 172.785156 503.691406 Z M 140.324219 472.644531 " fill-opacity="1" fill-rule="nonzero"/></g></g></g><g fill="#000000" fill-opacity="1"><g transform="translate(269.681884, 419.839483)"><g><path d="M 27.046875 0.859375 C 22.273438 0.859375 17.609375 0.269531 13.046875 -0.90625 C 8.484375 -2.082031 4.847656 -3.5625 2.140625 -5.34375 L 7.703125 -17.3125 C 10.265625 -15.675781 13.363281 -14.34375 17 -13.3125 C 20.632812 -12.28125 24.195312 -11.765625 27.6875 -11.765625 C 34.738281 -11.765625 38.265625 -13.507812 38.265625 -17 C 38.265625 -18.632812 37.300781 -19.804688 35.375 -20.515625 C 33.457031 -21.234375 30.503906 -21.84375 26.515625 -22.34375 C 21.804688 -23.050781 17.921875 -23.867188 14.859375 -24.796875 C 11.796875 -25.722656 9.140625 -27.363281 6.890625 -29.71875 C 4.648438 -32.070312 3.53125 -35.421875 3.53125 -39.765625 C 3.53125 -43.398438 4.578125 -46.625 6.671875 -49.4375 C 8.773438 -52.257812 11.84375 -54.453125 15.875 -56.015625 C 19.90625 -57.585938 24.660156 -58.375 30.140625 -58.375 C 34.203125 -58.375 38.25 -57.925781 42.28125 -57.03125 C 46.3125 -56.144531 49.644531 -54.914062 52.28125 -53.34375 L 46.71875 -41.484375 C 41.65625 -44.328125 36.128906 -45.75 30.140625 -45.75 C 26.578125 -45.75 23.90625 -45.25 22.125 -44.25 C 20.34375 -43.257812 19.453125 -41.976562 19.453125 -40.40625 C 19.453125 -38.625 20.414062 -37.375 22.34375 -36.65625 C 24.269531 -35.945312 27.332031 -35.273438 31.53125 -34.640625 C 36.238281 -33.859375 40.085938 -33.019531 43.078125 -32.125 C 46.078125 -31.226562 48.679688 -29.601562 50.890625 -27.25 C 53.097656 -24.90625 54.203125 -21.628906 54.203125 -17.421875 C 54.203125 -13.859375 53.128906 -10.6875 50.984375 -7.90625 C 48.847656 -5.125 45.734375 -2.96875 41.640625 -1.4375 C 37.546875 0.09375 32.679688 0.859375 27.046875 0.859375 Z M 27.046875 0.859375 "/></g></g></g><g fill="#000000" fill-opacity="1"><g transform="translate(326.446171, 419.839483)"><g><path d="M 32.390625 -22.5625 L 24.375 -14.640625 L 24.375 0 L 7.703125 0 L 7.703125 -79.328125 L 24.375 -79.328125 L 24.375 -34.421875 L 48.75 -57.515625 L 68.640625 -57.515625 L 44.6875 -33.140625 L 70.765625 0 L 50.5625 0 Z M 32.390625 -22.5625 "/></g></g></g><g fill="#000000" fill-opacity="1"><g transform="translate(397.000642, 419.839483)"><g><path d="M 7.703125 -57.515625 L 24.375 -57.515625 L 24.375 0 L 7.703125 0 Z M 16.03125 -65.53125 C 12.96875 -65.53125 10.472656 -66.421875 8.546875 -68.203125 C 6.628906 -69.984375 5.671875 -72.191406 5.671875 -74.828125 C 5.671875 -77.472656 6.628906 -79.6875 8.546875 -81.46875 C 10.472656 -83.25 12.96875 -84.140625 16.03125 -84.140625 C 19.101562 -84.140625 21.597656 -83.28125 23.515625 -81.5625 C 25.441406 -79.851562 26.40625 -77.71875 26.40625 -75.15625 C 26.40625 -72.375 25.441406 -70.070312 23.515625 -68.25 C 21.597656 -66.4375 19.101562 -65.53125 16.03125 -65.53125 Z M 16.03125 -65.53125 "/></g></g></g><g fill="#000000" fill-opacity="1"><g transform="translate(429.177753, 419.839483)"><g><path d="M 7.703125 -79.328125 L 24.375 -79.328125 L 24.375 0 L 7.703125 0 Z M 7.703125 -79.328125 "/></g></g></g><g fill="#000000" fill-opacity="1"><g transform="translate(461.354864, 419.839483)"><g><path d="M 7.703125 -79.328125 L 24.375 -79.328125 L 24.375 0 L 7.703125 0 Z M 7.703125 -79.328125 "/></g></g></g><g fill="#000000" fill-opacity="1"><g transform="translate(493.531963, 419.839483)"><g><path d="M 64.03125 -28.546875 C 64.03125 -28.328125 63.925781 -26.828125 63.71875 -24.046875 L 20.203125 -24.046875 C 20.984375 -20.484375 22.832031 -17.671875 25.75 -15.609375 C 28.675781 -13.546875 32.316406 -12.515625 36.671875 -12.515625 C 39.660156 -12.515625 42.3125 -12.957031 44.625 -13.84375 C 46.945312 -14.738281 49.101562 -16.144531 51.09375 -18.0625 L 59.96875 -8.453125 C 54.550781 -2.242188 46.640625 0.859375 36.234375 0.859375 C 29.753906 0.859375 24.019531 -0.40625 19.03125 -2.9375 C 14.039062 -5.46875 10.191406 -8.976562 7.484375 -13.46875 C 4.773438 -17.957031 3.421875 -23.050781 3.421875 -28.75 C 3.421875 -34.382812 4.753906 -39.460938 7.421875 -43.984375 C 10.097656 -48.515625 13.769531 -52.046875 18.4375 -54.578125 C 23.101562 -57.109375 28.328125 -58.375 34.109375 -58.375 C 39.734375 -58.375 44.828125 -57.160156 49.390625 -54.734375 C 53.953125 -52.304688 57.53125 -48.832031 60.125 -44.3125 C 62.726562 -39.789062 64.03125 -34.535156 64.03125 -28.546875 Z M 34.203125 -45.75 C 30.429688 -45.75 27.257812 -44.679688 24.6875 -42.546875 C 22.125 -40.410156 20.554688 -37.488281 19.984375 -33.78125 L 48.328125 -33.78125 C 47.753906 -37.414062 46.179688 -40.316406 43.609375 -42.484375 C 41.046875 -44.660156 37.910156 -45.75 34.203125 -45.75 Z M 34.203125 -45.75 "/></g></g></g><g fill="#000000" fill-opacity="1"><g transform="translate(560.986321, 419.839483)"><g><path d="M 66.28125 -79.328125 L 66.28125 0 L 50.359375 0 L 50.359375 -6.625 C 46.222656 -1.632812 40.234375 0.859375 32.390625 0.859375 C 26.972656 0.859375 22.070312 -0.351562 17.6875 -2.78125 C 13.3125 -5.207031 9.875 -8.664062 7.375 -13.15625 C 4.882812 -17.644531 3.640625 -22.84375 3.640625 -28.75 C 3.640625 -34.664062 4.882812 -39.867188 7.375 -44.359375 C 9.875 -48.847656 13.3125 -52.304688 17.6875 -54.734375 C 22.070312 -57.160156 26.972656 -58.375 32.390625 -58.375 C 39.734375 -58.375 45.472656 -56.054688 49.609375 -51.421875 L 49.609375 -79.328125 Z M 35.28125 -12.828125 C 39.488281 -12.828125 42.976562 -14.269531 45.75 -17.15625 C 48.53125 -20.039062 49.921875 -23.90625 49.921875 -28.75 C 49.921875 -33.601562 48.53125 -37.472656 45.75 -40.359375 C 42.976562 -43.242188 39.488281 -44.6875 35.28125 -44.6875 C 31 -44.6875 27.46875 -43.242188 24.6875 -40.359375 C 21.914062 -37.472656 20.53125 -33.601562 20.53125 -28.75 C 20.53125 -23.90625 21.914062 -20.039062 24.6875 -17.15625 C 27.46875 -14.269531 31 -12.828125 35.28125 -12.828125 Z M 35.28125 -12.828125 "/></g></g></g><g fill="#000000" fill-opacity="1"><g transform="translate(634.961622, 419.839483)"><g><path d="M 7.703125 -57.515625 L 24.375 -57.515625 L 24.375 0 L 7.703125 0 Z M 16.03125 -65.53125 C 12.96875 -65.53125 10.472656 -66.421875 8.546875 -68.203125 C 6.628906 -69.984375 5.671875 -72.191406 5.671875 -74.828125 C 5.671875 -77.472656 6.628906 -79.6875 8.546875 -81.46875 C 10.472656 -83.25 12.96875 -84.140625 16.03125 -84.140625 C 19.101562 -84.140625 21.597656 -83.28125 23.515625 -81.5625 C 25.441406 -79.851562 26.40625 -77.71875 26.40625 -75.15625 C 26.40625 -72.375 25.441406 -70.070312 23.515625 -68.25 C 21.597656 -66.4375 19.101562 -65.53125 16.03125 -65.53125 Z M 16.03125 -65.53125 "/></g></g></g><g fill="#000000" fill-opacity="1"><g transform="translate(667.138733, 419.839483)"><g><path d="M 44.796875 -2.78125 C 43.148438 -1.570312 41.132812 -0.660156 38.75 -0.046875 C 36.363281 0.554688 33.851562 0.859375 31.21875 0.859375 C 24.375 0.859375 19.082031 -0.882812 15.34375 -4.375 C 11.601562 -7.875 9.734375 -13.007812 9.734375 -19.78125 L 9.734375 -43.40625 L 0.859375 -43.40625 L 0.859375 -56.234375 L 9.734375 -56.234375 L 9.734375 -70.234375 L 26.40625 -70.234375 L 26.40625 -56.234375 L 40.734375 -56.234375 L 40.734375 -43.40625 L 26.40625 -43.40625 L 26.40625 -19.984375 C 26.40625 -17.566406 27.023438 -15.695312 28.265625 -14.375 C 29.515625 -13.0625 31.28125 -12.40625 33.5625 -12.40625 C 36.207031 -12.40625 38.453125 -13.117188 40.296875 -14.546875 Z M 44.796875 -2.78125 "/></g></g></g><g fill="#000000" fill-opacity="1"><g transform="translate(713.640544, 419.839483)"><g><path d="M 64.78125 -57.515625 L 38.8125 3.53125 C 36.164062 10.15625 32.898438 14.820312 29.015625 17.53125 C 25.140625 20.238281 20.457031 21.59375 14.96875 21.59375 C 11.976562 21.59375 9.019531 21.128906 6.09375 20.203125 C 3.164062 19.273438 0.78125 17.992188 -1.0625 16.359375 L 5.03125 4.484375 C 6.3125 5.628906 7.785156 6.519531 9.453125 7.15625 C 11.128906 7.800781 12.789062 8.125 14.4375 8.125 C 16.71875 8.125 18.566406 7.570312 19.984375 6.46875 C 21.410156 5.363281 22.695312 3.53125 23.84375 0.96875 L 24.046875 0.421875 L -0.859375 -57.515625 L 16.359375 -57.515625 L 32.5 -18.5 L 48.75 -57.515625 Z M 64.78125 -57.515625 "/></g></g></g></svg>