<svg width="28" height="28" viewBox="0 0 28 28" fill="none" xmlns="http://www.w3.org/2000/svg">
<path fill-rule="evenodd" clip-rule="evenodd" d="M18.3249 14.8248C18.5436 14.606 18.6665 14.3093 18.6665 14C18.6665 13.6906 18.5436 13.3939 18.3249 13.1751L11.7251 6.57529C11.6175 6.46386 11.4887 6.37498 11.3464 6.31383C11.2041 6.25269 11.051 6.22051 10.8961 6.21916C10.7411 6.21781 10.5875 6.24733 10.4441 6.30599C10.3008 6.36466 10.1705 6.45128 10.061 6.56083C9.95142 6.67037 9.86479 6.80063 9.80613 6.94401C9.74747 7.08739 9.71795 7.24101 9.71929 7.39592C9.72064 7.55083 9.75282 7.70392 9.81397 7.84626C9.87511 7.9886 9.96399 8.11733 10.0754 8.22495L15.8504 14L10.0754 19.775C9.8629 19.995 9.74531 20.2897 9.74797 20.5956C9.75062 20.9015 9.87332 21.1941 10.0896 21.4104C10.3059 21.6267 10.5986 21.7494 10.9045 21.7521C11.2103 21.7547 11.5051 21.6371 11.7251 21.4246L18.3249 14.8248Z" fill="white"/>
</svg>
