<svg width="36" height="36" viewBox="0 0 36 36" fill="none" xmlns="http://www.w3.org/2000/svg">
<path d="M18.425 35.09H18.3479C8.69778 35.09 0.846619 27.2365 0.846619 17.5836V17.5064C0.846619 7.85347 8.69778 0 18.3479 0H18.425C28.0751 0 35.9263 7.85347 35.9263 17.5064V17.5836C35.9263 27.2365 28.0751 35.09 18.425 35.09ZM18.3479 1.18776C9.35205 1.18776 2.03403 8.50793 2.03403 17.5064V17.5836C2.03403 26.5821 9.35205 33.9022 18.3479 33.9022H18.425C27.4209 33.9022 34.7389 26.5821 34.7389 17.5836V17.5064C34.7389 8.50793 27.4209 1.18776 18.425 1.18776H18.3479Z" fill="#383D38"/>
<path d="M8.31427 8.26953L16.1298 18.7218L8.26558 27.2202H10.036L16.9218 19.7801L22.4848 27.2202H28.5086L20.2537 16.18L27.5741 8.26953H25.8036L19.4629 15.1217L14.3392 8.26953H8.31544H8.31427ZM10.9171 9.57369H13.6837L25.9034 25.9161H23.1367L10.9171 9.57369Z" fill="#383D38"/>
</svg>
