<svg width="36" height="36" viewBox="0 0 36 36" fill="none" xmlns="http://www.w3.org/2000/svg">
<path d="M35.0875 17.6403C35.0875 26.5039 28.5192 33.8316 19.9864 35.0207C19.1886 35.1314 18.3723 35.1892 17.5438 35.1892C16.5874 35.1892 15.6481 35.113 14.7335 34.9654C6.38022 33.6201 0 26.3748 0 17.6403C0 7.94782 7.85542 0.0900879 17.545 0.0900879C27.2346 0.0900879 35.09 7.94782 35.09 17.6403H35.0875Z" fill="#1C1C1B"/>
<path d="M7.11535 7.82983L15.2068 18.6511L7.06494 27.4496H8.89788L16.0268 19.7468L21.7862 27.4496H28.0226L19.4763 16.0196L27.0551 7.82983H25.2221L18.6575 14.9239L13.353 7.82983H7.11656H7.11535ZM9.81003 9.18004H12.6744L25.3254 26.0994H22.4611L9.81003 9.18004Z" fill="white"/>
</svg>
