<svg width="37" height="36" viewBox="0 0 37 36" fill="none" xmlns="http://www.w3.org/2000/svg">
<path d="M36.0363 17.6229C36.0363 7.93023 28.1811 0.0727539 18.4913 0.0727539C8.80146 0.0727539 0.946289 7.93023 0.946289 17.6229C0.946289 27.3156 8.80146 35.1731 18.4913 35.1731C28.1811 35.1731 36.0363 27.3156 36.0363 17.6229Z" fill="#FF0209"/>
<path d="M25.9392 25.396C25.4164 25.4527 24.8814 25.4626 24.3685 25.4614C20.3678 25.4577 16.3671 25.454 12.3677 25.4515C11.1089 25.4515 9.73797 25.4108 8.76524 24.6104C7.66921 23.7065 7.44114 22.139 7.35237 20.7208C7.22908 18.7772 7.21922 16.8275 7.32031 14.8827C7.37579 13.8147 7.47319 12.7208 7.93305 11.7539C8.26346 11.0596 8.81455 10.4356 9.51976 10.1076C10.3396 9.7265 11.1977 9.79433 12.0804 9.79309C14.1936 9.79063 16.3067 9.78939 18.4199 9.78693C20.6168 9.78446 22.8151 9.78323 25.012 9.78076C26.0501 9.78076 27.1646 9.80173 28.0116 10.4023C29.1052 11.1768 29.4023 12.6505 29.5391 13.9836C29.7919 16.439 29.7956 18.9203 29.549 21.3756C29.4467 22.3881 29.2765 23.4586 28.6096 24.2269C27.9487 24.989 26.9686 25.2825 25.9404 25.3948L25.9392 25.396Z" fill="white"/>
<path d="M22.0691 17.6229L16.1069 14.1797V21.0661L22.0691 17.6229Z" fill="#FF0209"/>
</svg>
