<svg width="36" height="36" viewBox="0 0 36 36" fill="none" xmlns="http://www.w3.org/2000/svg">
<path d="M17.5613 35.09C7.8866 35.09 0.0162964 27.2197 0.0162964 17.545C0.0162964 7.87029 7.8866 0 17.5613 0C27.236 0 35.1063 7.87029 35.1063 17.545C35.1063 27.2197 27.236 35.09 17.5613 35.09ZM17.5613 1.19103C8.54405 1.19103 1.20732 8.52774 1.20732 17.545C1.20732 26.5622 8.54405 33.899 17.5613 33.899C26.5786 33.899 33.9153 26.5622 33.9153 17.545C33.9153 8.52774 26.5786 1.19103 17.5613 1.19103Z" fill="#FF0209"/>
<path d="M28.2341 14.0327C28.1007 12.7452 27.8137 11.3219 26.7572 10.5739C25.939 9.99391 24.8635 9.97248 23.8595 9.97367C21.7371 9.97486 19.6135 9.97724 17.4911 9.97843C15.4496 9.98081 13.4082 9.98201 11.3668 9.98439C10.514 9.98558 9.68507 9.91887 8.89303 10.2881C8.21296 10.6049 7.68057 11.2076 7.36018 11.8781C6.91593 12.8107 6.82304 13.8671 6.76944 14.8986C6.67059 16.7768 6.6813 18.6598 6.79922 20.5369C6.88616 21.9066 7.1065 23.4204 8.16532 24.2934C9.10385 25.0663 10.4283 25.1045 11.6455 25.1056C15.5092 25.1092 19.3741 25.1128 23.239 25.1152C23.7344 25.1164 24.2513 25.1068 24.7563 25.0521C25.7496 24.9449 26.6965 24.6602 27.3349 23.9242C27.9792 23.1821 28.1448 22.1495 28.2425 21.1717C28.4807 18.7992 28.4783 16.404 28.2341 14.0327ZM15.2567 20.8704V14.2185L21.0165 17.5438L15.2567 20.8704Z" fill="#FF0209"/>
</svg>
